<?xml version="1.0" encoding="UTF-8"?>
<svg version="1.1" xmlns="http://www.w3.org/2000/svg" width="1254" height="1254">
<path d="M0 0 C1.41200684 0.24145752 1.41200684 0.24145752 2.85253906 0.48779297 C25.38461435 4.5166302 47.47098977 11.88651513 68 22 C68.69706055 22.33966797 69.39412109 22.67933594 70.11230469 23.02929688 C81.71114651 28.74096864 92.42895677 35.57482521 103 43 C103.58152832 43.40750488 104.16305664 43.81500977 104.76220703 44.23486328 C111.75012954 49.17980513 118.08630514 54.65111896 124.3125 60.5 C126.43363151 62.47314559 128.57581042 64.35021927 130.8125 66.1875 C134.63710351 69.43289673 137.78254456 73.16505311 141 77 C141.75152344 77.86367187 142.50304687 78.72734375 143.27734375 79.6171875 C178.03339447 120.13845991 193.91387598 170.84449108 190.83007812 223.92480469 C188.66856948 250.90540599 180.40944588 277.18265902 170 302 C169.40879502 303.46299232 168.81880404 304.92647629 168.23046875 306.390625 C157.46654142 332.62160785 141.55531735 357.11031689 125 380 C124.41428223 380.81388184 123.82856445 381.62776367 123.22509766 382.46630859 C115.58886629 393.05496302 107.62890679 403.30443751 99.32470703 413.37548828 C97.6706828 415.40384753 96.08081798 417.47675244 94.5 419.5625 C90.83526434 424.33030286 86.85695729 428.82197961 82.90063477 433.34741211 C79.66953662 437.04956719 76.51394053 440.7920577 73.4375 444.625 C69.63099855 449.33248986 65.57633207 453.74895348 61.44116211 458.16455078 C58.32395467 461.51132193 55.36408047 464.93027651 52.5 468.5 C48.16072656 473.90436782 43.49603585 478.94955123 38.7734375 484.015625 C35.42857034 487.6040396 32.19562005 491.27835196 29 495 C28.07557071 496.07035558 27.15108642 497.14066365 26.2265625 498.2109375 C20.04000738 505.38655019 13.96786058 512.64091791 8 520 C6.89896608 521.34288148 5.79736246 522.68529597 4.6953125 524.02734375 C3.52596243 525.4556643 2.3566914 526.88404957 1.1875 528.3125 C0.36004272 529.31772705 0.36004272 529.31772705 -0.48413086 530.34326172 C-2.01047203 532.21311711 -3.50871223 534.10213927 -5 536 C-5.76570313 536.95519531 -6.53140625 537.91039062 -7.3203125 538.89453125 C-9.56676734 543.04786054 -9.787923 546.718174 -10.0625 551.375 C-10.65221354 560.5483218 -12.02980012 568.33958678 -19 575 C-25.1856492 578.73393403 -30.59616943 578 -38 578 C-38 624.2 -38 670.4 -38 718 C-36.35 718.33 -34.7 718.66 -33 719 C-28.62926388 721.4975635 -25.78946522 724.64426115 -24.0625 729.375 C-22.09331318 736.68912248 -22.81258276 741.85996715 -25.39453125 748.890625 C-26.54783818 752.90859754 -25.27589606 756.17231183 -24 760 C-23.90648031 761.6228417 -23.87005919 763.24947341 -23.875 764.875 C-23.87242187 765.71804688 -23.86984375 766.56109375 -23.8671875 767.4296875 C-24 770 -24 770 -24.875 772.40625 C-25.29559755 775.32085302 -25.29559755 775.32085302 -22.5703125 778.1640625 C-21.43553227 779.33114485 -20.28608723 780.4840864 -19.125 781.625 C-17.90756917 782.87378518 -16.69273745 784.12510928 -15.48046875 785.37890625 C-14.88153809 785.9939502 -14.28260742 786.60899414 -13.66552734 787.24267578 C-11.45200098 789.57820243 -9.43845559 792.04373705 -7.4375 794.5625 C-3.12693239 799.94475569 1.51426844 804.96162268 6.21484375 810 C8.97666341 812.9621924 11.65302434 815.9902134 14.30078125 819.0546875 C16.29406428 821.3366529 18.33493027 823.57228574 20.375 825.8125 C23.57652433 829.35160002 26.63146063 832.97103106 29.625 836.6875 C32.68828687 840.47406293 35.851851 843.9667395 39.34375 847.35546875 C41.01475172 849.01464734 42.5757997 850.72677319 44.125 852.5 C44.69734375 853.15355469 45.2696875 853.80710937 45.859375 854.48046875 C47.61211884 856.54346105 49.31773018 858.63056779 51.015625 860.73828125 C52.13531753 862.0964359 53.25511016 863.45450804 54.375 864.8125 C55.15061279 865.80056641 55.15061279 865.80056641 55.94189453 866.80859375 C62.3838465 874.54132276 70.99872155 875.39560341 80.48828125 876.81640625 C86.6959567 877.85300465 86.6959567 877.85300465 89 881 C89.38755417 883.45399952 89.38755417 883.45399952 89.40545654 886.42964172 C89.4264315 888.12196678 89.4264315 888.12196678 89.4478302 889.84848022 C89.44796616 891.08740021 89.44810211 892.32632019 89.44824219 893.6027832 C89.46004013 894.90721878 89.47183807 896.21165436 89.48399353 897.55561829 C89.51591681 901.13891904 89.5292527 904.72207568 89.53904247 908.30549645 C89.55215837 912.06531931 89.58130664 915.82501971 89.60845947 919.58476257 C89.65181015 925.9107312 89.68389051 932.23667615 89.70849609 938.56274414 C89.73688011 945.8454385 89.77907254 953.12794081 89.82973552 960.41051227 C89.88383835 968.18975125 89.92950186 975.96902117 89.97177219 983.74833274 C89.98429374 985.97383858 89.99814824 988.19933302 90.01222992 990.42482948 C90.03398541 993.95013459 90.04989102 997.47542394 90.06158638 1001.00077629 C90.06899643 1002.88743631 90.08151756 1004.77407419 90.09428406 1006.66070557 C90.10821372 1012.63248461 90.01139777 1018.59801037 89.7456665 1024.56413269 C89.6998859 1025.67893603 89.6541053 1026.79373938 89.60693741 1027.94232464 C88.68445802 1032.58966135 86.28133282 1035.04975368 82.54907227 1037.81762695 C81.64729248 1038.36894287 80.7455127 1038.92025879 79.81640625 1039.48828125 C78.81270996 1040.10823975 77.80901367 1040.72819824 76.77490234 1041.36694336 C75.71480957 1042.00897705 74.6547168 1042.65101074 73.5625 1043.3125 C72.47662598 1043.97967041 71.39075195 1044.64684082 70.27197266 1045.33422852 C68.13201134 1046.64810771 65.98982485 1047.95837095 63.84521484 1049.26464844 C61.56233342 1050.65702197 59.28706587 1052.05942978 57.01953125 1053.4765625 C51.52976506 1056.89999433 45.98150751 1060.2098378 40.375 1063.4375 C39.78187012 1063.78031006 39.18874023 1064.12312012 38.57763672 1064.47631836 C33.85981638 1067.16584636 30.55028901 1068.12571051 25.14115906 1068.11578369 C23.30740455 1068.11502649 23.30740455 1068.11502649 21.4366045 1068.114254 C20.07842181 1068.10803676 18.72024049 1068.10151715 17.36206055 1068.09472656 C15.92902258 1068.0908158 14.49598416 1068.08706745 13.06294537 1068.08346939 C-14.97245651 1067.99121987 -43.00691968 1067.48140004 -71.03834057 1067.0337944 C-82.20152667 1066.85579452 -93.3647487 1066.6910111 -104.52837199 1066.54287314 C-112.44858427 1066.43667352 -120.36848556 1066.31559573 -128.28830701 1066.18345284 C-132.995649 1066.10532629 -137.70287318 1066.03379815 -142.41054344 1065.978508 C-146.8115585 1065.9265422 -151.21189461 1065.85621404 -155.61240005 1065.77163506 C-157.2243932 1065.74387205 -158.8365178 1065.7228098 -160.44869041 1065.70894814 C-162.64864977 1065.68902379 -164.84686065 1065.64498863 -167.04631042 1065.59490967 C-168.27590075 1065.57647381 -169.50549109 1065.55803795 -170.77234173 1065.53904343 C-174.58805502 1064.90179035 -176.26464984 1063.68383322 -179 1061 C-180.38148249 1058.23703503 -180.1355207 1056.00210425 -180.14717102 1052.90873718 C-180.15432632 1051.60901978 -180.16148163 1050.30930237 -180.16885376 1048.97019958 C-180.17169416 1047.52139306 -180.17440587 1046.07258628 -180.17700195 1044.6237793 C-180.18326545 1043.10452112 -180.18991215 1041.58526447 -180.19691467 1040.06600952 C-180.21433441 1035.93163191 -180.22487899 1031.79726586 -180.2331202 1027.66286063 C-180.2382681 1025.08081406 -180.24434391 1022.49877109 -180.25063133 1019.91672707 C-180.26968579 1011.84094497 -180.28391661 1003.76517203 -180.2922433 995.68937176 C-180.3020189 986.36188119 -180.32834568 977.03462773 -180.36874419 967.70722073 C-180.39888543 960.50121503 -180.41371026 953.29527738 -180.41702431 946.08920985 C-180.41937701 941.78366225 -180.42836571 937.47836788 -180.45348549 933.1728878 C-180.47673669 929.12219329 -180.48101155 925.07191928 -180.47072411 921.02117538 C-180.47022792 919.53486929 -180.47657291 918.0485427 -180.49028015 916.56229973 C-180.50795359 914.53234783 -180.49852246 912.50221398 -180.48774719 910.47221375 C-180.49013555 909.33639705 -180.4925239 908.20058035 -180.49498463 907.03034496 C-179.88494399 903.29561569 -178.63033744 901.67638286 -176 899 C-173.60322344 897.62675791 -171.31299804 896.44936599 -168.8125 895.3125 C-167.37322483 894.61301591 -165.93578151 893.90975253 -164.5 893.203125 C-163.75878906 892.84025391 -163.01757812 892.47738281 -162.25390625 892.10351562 C-161.51011719 891.73935547 -160.76632812 891.37519531 -160 891 C-159.27425781 890.64873047 -158.54851562 890.29746094 -157.80078125 889.93554688 C-145.90890762 884.05365965 -139.07155838 877.0489821 -131.57373047 866.20800781 C-128.99003101 862.58297245 -126.15152592 859.17619565 -123.3125 855.75 C-119.37735516 850.95462782 -115.50978597 846.12166618 -111.75 841.1875 C-108.04093077 836.32569267 -104.22363845 831.57564853 -100.33203125 826.859375 C-97.7625168 823.70881457 -95.2521587 820.51657111 -92.75 817.3125 C-88.10889449 811.37026576 -83.37622445 805.50754018 -78.59082031 799.6809082 C-75.94901552 796.45198937 -73.37832926 793.19230317 -70.89453125 789.83984375 C-68.57939311 786.71912701 -66.09190971 783.83405581 -63.5 780.9375 C-61.43004457 778.48703575 -61.43004457 778.48703575 -60 776 C-60.33640919 772.32254111 -60.33640919 772.32254111 -62 769 C-62.59020541 764.7060418 -62.2939075 761.23820576 -60.4375 757.3125 C-58.87928278 753.72182554 -58.76452888 752.61137713 -60 749 C-60.50853516 747.88431641 -60.50853516 747.88431641 -61.02734375 746.74609375 C-63.24345385 740.48936523 -63.14552975 732.60178377 -60.4375 726.5 C-58.10709195 722.55495208 -54.87005097 720.31664304 -51 718 C-50.01 717.34 -49.02 716.68 -48 716 C-47.55180179 713.49653898 -47.55180179 713.49653898 -47.63923645 710.52047729 C-47.63511246 709.35657471 -47.63098846 708.19267212 -47.6267395 706.99349976 C-47.63752533 705.71028839 -47.64831116 704.42707703 -47.65942383 703.10498047 C-47.66026971 701.74509703 -47.65979572 700.38521223 -47.65809631 699.02532959 C-47.6572334 695.32709957 -47.67490669 691.62915977 -47.69581819 687.93099737 C-47.7145359 684.06860661 -47.71633154 680.20620964 -47.71989441 676.34378052 C-47.72922935 669.02684391 -47.75386262 661.71004132 -47.78394288 654.3931638 C-47.81744193 646.06439515 -47.83396156 637.7356202 -47.84902918 629.40680099 C-47.880411 612.27112306 -47.93319951 595.13557569 -48 578 C-50.00068156 578.00851949 -52.00136312 578.01703898 -54.00204468 578.02555847 C-59.21233455 577.95890681 -64.15798159 576.98570197 -68.375 573.8125 C-73.48717955 568.33516477 -74.27619259 563.03397077 -74.87109375 555.81591797 C-75.86140371 544.10169375 -77.71999828 537.56637772 -86 529 C-87.40467878 527.37051226 -88.77982449 525.71881049 -90.15478516 524.06420898 C-91.54542425 522.3954903 -92.95549343 520.74522052 -94.37109375 519.09765625 C-96.68843494 516.38615829 -98.91862602 513.61542838 -101.125 510.8125 C-104.49213058 506.56072615 -108.07486992 502.55512545 -111.73046875 498.55078125 C-113.99024673 496.01096193 -116.12507737 493.40323977 -118.25 490.75 C-122.90658812 484.99053574 -127.92834177 479.62051301 -132.9921875 474.22265625 C-135.8422557 471.18205669 -138.60488811 468.07651576 -141.328125 464.921875 C-143.35758073 462.58894926 -145.427647 460.29488755 -147.5 458 C-158.66388724 445.61652844 -169.49379335 432.94549046 -180 420 C-181.45824123 418.22909082 -182.91657619 416.45825882 -184.375 414.6875 C-206.10603162 388.11052405 -225.95108318 360.39508917 -242.66894531 330.38330078 C-243.81583583 328.32975251 -244.97895838 326.28680683 -246.1484375 324.24609375 C-273.6107205 274.98212078 -287.40097119 214.45537086 -272.17773438 159.13061523 C-262.651074 126.4908217 -246.48312983 97.66074991 -223 73 C-222.44602539 72.41347656 -221.89205078 71.82695312 -221.32128906 71.22265625 C-211.62484514 61.01803448 -201.40725491 52.23070686 -190 44 C-189.11054688 43.33742187 -188.22109375 42.67484375 -187.3046875 41.9921875 C-155.16967908 18.57175764 -116.91084378 5.38618121 -78 -1 C-77.23010742 -1.13277344 -76.46021484 -1.26554687 -75.66699219 -1.40234375 C-51.2591645 -5.47985978 -24.26575012 -4.17132304 0 0 Z M-51 729 C-53.38436044 731.92626055 -53.23515652 735.01272829 -53.265625 738.70703125 C-52.89872541 741.87423799 -51.87591737 744.93428921 -51 748 C-45.39 748 -39.78 748 -34 748 C-31.73472215 739.37494873 -31.73472215 739.37494873 -33 731 C-35.65004544 727.88229948 -37.50341347 727.13543269 -41.4375 726.0625 C-45.58015449 725.98982185 -47.58205264 726.69487271 -51 729 Z M-61.73144531 792.03662109 C-63.47611001 794.73688929 -65.41433187 797.26891748 -67.36181641 799.82495117 C-68.88937715 801.83138422 -70.39035377 803.85592236 -71.890625 805.8828125 C-75.54812922 810.77420156 -79.41120267 815.48945485 -83.28466797 820.21020508 C-86.59786213 824.25464512 -89.83106746 828.34141701 -93 832.5 C-97.27204295 838.10358881 -101.69412026 843.56953366 -106.1550293 849.0234375 C-111.23457393 855.25002493 -116.14391571 861.59829971 -121 868 C-117.85568772 868.2063352 -117.85568772 868.2063352 -114.72218323 866.51499939 C-111.17669678 864.94159708 -108.36071906 864.66583154 -104.44506836 864.76000977 C-103.44214076 864.77825853 -103.44214076 864.77825853 -102.41895199 864.79687595 C-99.94530692 864.8477692 -97.47301156 864.9243963 -95 865 C-92.84500152 865.0542022 -90.68998046 865.10751143 -88.53494263 865.16012573 C-81.36241476 865.34294246 -74.19094181 865.5561752 -67.01944089 865.7747848 C-64.12907808 865.86263387 -61.23867244 865.9490278 -58.34826702 866.03546149 C-51.52906595 866.23943257 -44.70994493 866.44593842 -37.89086914 866.65405273 C-30.88237835 866.86790033 -23.87376379 867.07727655 -16.86507469 867.28451437 C-10.81277636 867.46363827 -4.76056755 867.64559335 1.29157883 867.82977968 C4.89154386 867.93930694 8.4915324 868.04778083 12.09161186 868.15348625 C16.09953703 868.27130605 20.10725939 868.39503261 24.11499023 868.51928711 C25.29179352 868.55309479 26.4685968 868.58690247 27.68106079 868.62173462 C33.84082318 868.81791689 39.88561291 869.22226441 46 870 C41.44170971 863.54242208 36.27203643 857.86199771 30.88671875 852.1015625 C28.11253562 849.1337487 25.43103277 846.09587691 22.7734375 843.0234375 C20.54861908 840.48498829 18.27496681 837.99358224 16 835.5 C12.54356229 831.70990918 9.13156146 827.88943967 5.76953125 824.015625 C3.74885044 821.71392236 1.68687382 819.45235621 -0.375 817.1875 C-3.40973184 813.83198275 -6.3041891 810.41161818 -9.125 806.875 C-13.75242603 801.1399454 -18.77482259 795.81215706 -23.85986328 790.48193359 C-24.48103027 789.82918457 -25.10219727 789.17643555 -25.7421875 788.50390625 C-26.2976123 787.92455322 -26.85303711 787.3452002 -27.42529297 786.74829102 C-29 785 -29 785 -30.43603516 782.83398438 C-32.38156889 780.55255299 -33.33463004 780.3944236 -36.28125 780.15234375 C-49.03567424 779.30728945 -54.90404268 781.26153035 -61.73144531 792.03662109 Z " fill="#FDFDFD" transform="translate(668,75)"/>
<path d="M0 0 C1.41200684 0.24145752 1.41200684 0.24145752 2.85253906 0.48779297 C25.38461435 4.5166302 47.47098977 11.88651513 68 22 C68.69706055 22.33966797 69.39412109 22.67933594 70.11230469 23.02929688 C81.71114651 28.74096864 92.42895677 35.57482521 103 43 C103.58152832 43.40750488 104.16305664 43.81500977 104.76220703 44.23486328 C111.75012954 49.17980513 118.08630514 54.65111896 124.3125 60.5 C126.43363151 62.47314559 128.57581042 64.35021927 130.8125 66.1875 C134.63710351 69.43289673 137.78254456 73.16505311 141 77 C141.75152344 77.86367187 142.50304687 78.72734375 143.27734375 79.6171875 C178.03339447 120.13845991 193.91387598 170.84449108 190.83007812 223.92480469 C188.66856948 250.90540599 180.40944588 277.18265902 170 302 C169.40879502 303.46299232 168.81880404 304.92647629 168.23046875 306.390625 C157.46654142 332.62160785 141.55531735 357.11031689 125 380 C124.41428223 380.81388184 123.82856445 381.62776367 123.22509766 382.46630859 C115.58886629 393.05496302 107.62890679 403.30443751 99.32470703 413.37548828 C97.6706828 415.40384753 96.08081798 417.47675244 94.5 419.5625 C90.83526434 424.33030286 86.85695729 428.82197961 82.90063477 433.34741211 C79.66953662 437.04956719 76.51394053 440.7920577 73.4375 444.625 C69.63099855 449.33248986 65.57633207 453.74895348 61.44116211 458.16455078 C58.32395467 461.51132193 55.36408047 464.93027651 52.5 468.5 C48.16072656 473.90436782 43.49603585 478.94955123 38.7734375 484.015625 C35.42857034 487.6040396 32.19562005 491.27835196 29 495 C28.07557071 496.07035558 27.15108642 497.14066365 26.2265625 498.2109375 C20.04000738 505.38655019 13.96786058 512.64091791 8 520 C6.89896608 521.34288148 5.79736246 522.68529597 4.6953125 524.02734375 C3.52596243 525.4556643 2.3566914 526.88404957 1.1875 528.3125 C0.36004272 529.31772705 0.36004272 529.31772705 -0.48413086 530.34326172 C-2.01047203 532.21311711 -3.50871223 534.10213927 -5 536 C-5.76570313 536.95519531 -6.53140625 537.91039062 -7.3203125 538.89453125 C-9.56676734 543.04786054 -9.787923 546.718174 -10.0625 551.375 C-10.65221354 560.5483218 -12.02980012 568.33958678 -19 575 C-25.1856492 578.73393403 -30.59616943 578 -38 578 C-38 624.2 -38 670.4 -38 718 C-36.35 718.33 -34.7 718.66 -33 719 C-28.62926388 721.4975635 -25.78946522 724.64426115 -24.0625 729.375 C-22.09331318 736.68912248 -22.81258276 741.85996715 -25.39453125 748.890625 C-26.54783818 752.90859754 -25.27589606 756.17231183 -24 760 C-23.90648031 761.6228417 -23.87005919 763.24947341 -23.875 764.875 C-23.87242187 765.71804688 -23.86984375 766.56109375 -23.8671875 767.4296875 C-24 770 -24 770 -24.875 772.40625 C-25.29559755 775.32085302 -25.29559755 775.32085302 -22.5703125 778.1640625 C-21.43553227 779.33114485 -20.28608723 780.4840864 -19.125 781.625 C-17.90756917 782.87378518 -16.69273745 784.12510928 -15.48046875 785.37890625 C-14.88153809 785.9939502 -14.28260742 786.60899414 -13.66552734 787.24267578 C-11.45200098 789.57820243 -9.43845559 792.04373705 -7.4375 794.5625 C-3.12693239 799.94475569 1.51426844 804.96162268 6.21484375 810 C8.97666341 812.9621924 11.65302434 815.9902134 14.30078125 819.0546875 C16.29406428 821.3366529 18.33493027 823.57228574 20.375 825.8125 C23.57652433 829.35160002 26.63146063 832.97103106 29.625 836.6875 C32.68828687 840.47406293 35.851851 843.9667395 39.34375 847.35546875 C41.01475172 849.01464734 42.5757997 850.72677319 44.125 852.5 C44.69734375 853.15355469 45.2696875 853.80710937 45.859375 854.48046875 C47.61211884 856.54346105 49.31773018 858.63056779 51.015625 860.73828125 C52.13531753 862.0964359 53.25511016 863.45450804 54.375 864.8125 C55.15061279 865.80056641 55.15061279 865.80056641 55.94189453 866.80859375 C62.3838465 874.54132276 70.99872155 875.39560341 80.48828125 876.81640625 C86.6959567 877.85300465 86.6959567 877.85300465 89 881 C89.38755417 883.45399952 89.38755417 883.45399952 89.40545654 886.42964172 C89.4264315 888.12196678 89.4264315 888.12196678 89.4478302 889.84848022 C89.44796616 891.08740021 89.44810211 892.32632019 89.44824219 893.6027832 C89.46004013 894.90721878 89.47183807 896.21165436 89.48399353 897.55561829 C89.51591681 901.13891904 89.5292527 904.72207568 89.53904247 908.30549645 C89.55215837 912.06531931 89.58130664 915.82501971 89.60845947 919.58476257 C89.65181015 925.9107312 89.68389051 932.23667615 89.70849609 938.56274414 C89.73688011 945.8454385 89.77907254 953.12794081 89.82973552 960.41051227 C89.88383835 968.18975125 89.92950186 975.96902117 89.97177219 983.74833274 C89.98429374 985.97383858 89.99814824 988.19933302 90.01222992 990.42482948 C90.03398541 993.95013459 90.04989102 997.47542394 90.06158638 1001.00077629 C90.06899643 1002.88743631 90.08151756 1004.77407419 90.09428406 1006.66070557 C90.10821372 1012.63248461 90.01139777 1018.59801037 89.7456665 1024.56413269 C89.6998859 1025.67893603 89.6541053 1026.79373938 89.60693741 1027.94232464 C88.68445802 1032.58966135 86.28133282 1035.04975368 82.54907227 1037.81762695 C81.64729248 1038.36894287 80.7455127 1038.92025879 79.81640625 1039.48828125 C78.81270996 1040.10823975 77.80901367 1040.72819824 76.77490234 1041.36694336 C75.71480957 1042.00897705 74.6547168 1042.65101074 73.5625 1043.3125 C72.47662598 1043.97967041 71.39075195 1044.64684082 70.27197266 1045.33422852 C68.13201134 1046.64810771 65.98982485 1047.95837095 63.84521484 1049.26464844 C61.56233342 1050.65702197 59.28706587 1052.05942978 57.01953125 1053.4765625 C51.52976506 1056.89999433 45.98150751 1060.2098378 40.375 1063.4375 C39.78187012 1063.78031006 39.18874023 1064.12312012 38.57763672 1064.47631836 C33.85981638 1067.16584636 30.55028901 1068.12571051 25.14115906 1068.11578369 C23.30740455 1068.11502649 23.30740455 1068.11502649 21.4366045 1068.114254 C20.07842181 1068.10803676 18.72024049 1068.10151715 17.36206055 1068.09472656 C15.92902258 1068.0908158 14.49598416 1068.08706745 13.06294537 1068.08346939 C-14.97245651 1067.99121987 -43.00691968 1067.48140004 -71.03834057 1067.0337944 C-82.20152667 1066.85579452 -93.3647487 1066.6910111 -104.52837199 1066.54287314 C-112.44858427 1066.43667352 -120.36848556 1066.31559573 -128.28830701 1066.18345284 C-132.995649 1066.10532629 -137.70287318 1066.03379815 -142.41054344 1065.978508 C-146.8115585 1065.9265422 -151.21189461 1065.85621404 -155.61240005 1065.77163506 C-157.2243932 1065.74387205 -158.8365178 1065.7228098 -160.44869041 1065.70894814 C-162.64864977 1065.68902379 -164.84686065 1065.64498863 -167.04631042 1065.59490967 C-168.27590075 1065.57647381 -169.50549109 1065.55803795 -170.77234173 1065.53904343 C-174.58805502 1064.90179035 -176.26464984 1063.68383322 -179 1061 C-180.38148249 1058.23703503 -180.1355207 1056.00210425 -180.14717102 1052.90873718 C-180.15432632 1051.60901978 -180.16148163 1050.30930237 -180.16885376 1048.97019958 C-180.17169416 1047.52139306 -180.17440587 1046.07258628 -180.17700195 1044.6237793 C-180.18326545 1043.10452112 -180.18991215 1041.58526447 -180.19691467 1040.06600952 C-180.21433441 1035.93163191 -180.22487899 1031.79726586 -180.2331202 1027.66286063 C-180.2382681 1025.08081406 -180.24434391 1022.49877109 -180.25063133 1019.91672707 C-180.26968579 1011.84094497 -180.28391661 1003.76517203 -180.2922433 995.68937176 C-180.3020189 986.36188119 -180.32834568 977.03462773 -180.36874419 967.70722073 C-180.39888543 960.50121503 -180.41371026 953.29527738 -180.41702431 946.08920985 C-180.41937701 941.78366225 -180.42836571 937.47836788 -180.45348549 933.1728878 C-180.47673669 929.12219329 -180.48101155 925.07191928 -180.47072411 921.02117538 C-180.47022792 919.53486929 -180.47657291 918.0485427 -180.49028015 916.56229973 C-180.50795359 914.53234783 -180.49852246 912.50221398 -180.48774719 910.47221375 C-180.49013555 909.33639705 -180.4925239 908.20058035 -180.49498463 907.03034496 C-179.88494399 903.29561569 -178.63033744 901.67638286 -176 899 C-173.60322344 897.62675791 -171.31299804 896.44936599 -168.8125 895.3125 C-167.37322483 894.61301591 -165.93578151 893.90975253 -164.5 893.203125 C-163.75878906 892.84025391 -163.01757812 892.47738281 -162.25390625 892.10351562 C-161.51011719 891.73935547 -160.76632812 891.37519531 -160 891 C-159.27425781 890.64873047 -158.54851562 890.29746094 -157.80078125 889.93554688 C-145.90890762 884.05365965 -139.07155838 877.0489821 -131.57373047 866.20800781 C-128.99003101 862.58297245 -126.15152592 859.17619565 -123.3125 855.75 C-119.37735516 850.95462782 -115.50978597 846.12166618 -111.75 841.1875 C-108.04093077 836.32569267 -104.22363845 831.57564853 -100.33203125 826.859375 C-97.7625168 823.70881457 -95.2521587 820.51657111 -92.75 817.3125 C-88.10889449 811.37026576 -83.37622445 805.50754018 -78.59082031 799.6809082 C-75.94901552 796.45198937 -73.37832926 793.19230317 -70.89453125 789.83984375 C-68.57939311 786.71912701 -66.09190971 783.83405581 -63.5 780.9375 C-61.43004457 778.48703575 -61.43004457 778.48703575 -60 776 C-60.33640919 772.32254111 -60.33640919 772.32254111 -62 769 C-62.59020541 764.7060418 -62.2939075 761.23820576 -60.4375 757.3125 C-58.87928278 753.72182554 -58.76452888 752.61137713 -60 749 C-60.50853516 747.88431641 -60.50853516 747.88431641 -61.02734375 746.74609375 C-63.24345385 740.48936523 -63.14552975 732.60178377 -60.4375 726.5 C-58.10709195 722.55495208 -54.87005097 720.31664304 -51 718 C-50.01 717.34 -49.02 716.68 -48 716 C-47.55180179 713.49653898 -47.55180179 713.49653898 -47.63923645 710.52047729 C-47.63511246 709.35657471 -47.63098846 708.19267212 -47.6267395 706.99349976 C-47.63752533 705.71028839 -47.64831116 704.42707703 -47.65942383 703.10498047 C-47.66026971 701.74509703 -47.65979572 700.38521223 -47.65809631 699.02532959 C-47.6572334 695.32709957 -47.67490669 691.62915977 -47.69581819 687.93099737 C-47.7145359 684.06860661 -47.71633154 680.20620964 -47.71989441 676.34378052 C-47.72922935 669.02684391 -47.75386262 661.71004132 -47.78394288 654.3931638 C-47.81744193 646.06439515 -47.83396156 637.7356202 -47.84902918 629.40680099 C-47.880411 612.27112306 -47.93319951 595.13557569 -48 578 C-50.00068156 578.00851949 -52.00136312 578.01703898 -54.00204468 578.02555847 C-59.21233455 577.95890681 -64.15798159 576.98570197 -68.375 573.8125 C-73.48717955 568.33516477 -74.27619259 563.03397077 -74.87109375 555.81591797 C-75.86140371 544.10169375 -77.71999828 537.56637772 -86 529 C-87.40467878 527.37051226 -88.77982449 525.71881049 -90.15478516 524.06420898 C-91.54542425 522.3954903 -92.95549343 520.74522052 -94.37109375 519.09765625 C-96.68843494 516.38615829 -98.91862602 513.61542838 -101.125 510.8125 C-104.49213058 506.56072615 -108.07486992 502.55512545 -111.73046875 498.55078125 C-113.99024673 496.01096193 -116.12507737 493.40323977 -118.25 490.75 C-122.90658812 484.99053574 -127.92834177 479.62051301 -132.9921875 474.22265625 C-135.8422557 471.18205669 -138.60488811 468.07651576 -141.328125 464.921875 C-143.35758073 462.58894926 -145.427647 460.29488755 -147.5 458 C-158.66388724 445.61652844 -169.49379335 432.94549046 -180 420 C-181.45824123 418.22909082 -182.91657619 416.45825882 -184.375 414.6875 C-206.10603162 388.11052405 -225.95108318 360.39508917 -242.66894531 330.38330078 C-243.81583583 328.32975251 -244.97895838 326.28680683 -246.1484375 324.24609375 C-273.6107205 274.98212078 -287.40097119 214.45537086 -272.17773438 159.13061523 C-262.651074 126.4908217 -246.48312983 97.66074991 -223 73 C-222.44602539 72.41347656 -221.89205078 71.82695312 -221.32128906 71.22265625 C-211.62484514 61.01803448 -201.40725491 52.23070686 -190 44 C-189.11054688 43.33742187 -188.22109375 42.67484375 -187.3046875 41.9921875 C-155.16967908 18.57175764 -116.91084378 5.38618121 -78 -1 C-77.23010742 -1.13277344 -76.46021484 -1.26554687 -75.66699219 -1.40234375 C-51.2591645 -5.47985978 -24.26575012 -4.17132304 0 0 Z M-99.25610352 12.28637695 C-102.11900135 13.03094946 -104.99332578 13.7072301 -107.875 14.375 C-114.76079726 16.09193108 -121.36035909 18.51392441 -128 21 C-129.23492188 21.4434375 -130.46984375 21.886875 -131.7421875 22.34375 C-183.84264715 41.95627935 -229.32831059 82.20893888 -252.90356445 132.77783203 C-258.97611082 146.3250366 -264.03899137 160.66546843 -266.5625 175.3125 C-266.68818359 176.00794922 -266.81386719 176.70339844 -266.94335938 177.41992188 C-268.53766903 186.52668539 -269.17321772 195.50936092 -269.125 204.75 C-269.12089111 205.71446045 -269.11678223 206.6789209 -269.11254883 207.67260742 C-269.00833066 221.06296164 -267.64418993 233.8896859 -265 247 C-264.85111328 247.77666016 -264.70222656 248.55332031 -264.54882812 249.35351562 C-261.36528981 265.66749825 -255.45307155 280.7254305 -249 296 C-248.58057129 296.99741211 -248.16114258 297.99482422 -247.72900391 299.02246094 C-230.6625042 339.16352969 -204.98634733 374.71240715 -177.43994141 408.24414062 C-176.15634299 409.80935592 -174.88036928 411.380817 -173.60546875 412.953125 C-168.05962659 419.78800074 -162.3555782 426.47905239 -156.60449219 433.14111328 C-154.96624849 435.03910286 -153.330794 436.93947386 -151.6953125 438.83984375 C-145.9494448 445.50454404 -140.14297837 452.0966154 -134.19921875 458.5859375 C-131.68401069 461.3468586 -129.22721129 464.15386748 -126.77734375 466.97265625 C-124.70640513 469.33489173 -122.60487152 471.66795853 -120.5 474 C-114.32411792 480.85397724 -108.32969126 487.79568988 -102.51171875 494.95703125 C-99.76421751 498.2856525 -96.94992279 501.54973455 -94.125 504.8125 C-89.16091585 510.56005404 -84.41733464 516.45100773 -79.765625 522.453125 C-79.35440399 522.96561295 -78.94318298 523.47810089 -78.51950073 524.00611877 C-77 526 -77 526 -75.40014648 528.47976685 C-71.75470348 533.80311786 -71.75470348 533.80311786 -66.32073975 536.98986816 C-63.19401249 537.41982192 -60.20310968 537.54321087 -57.046875 537.5390625 C-55.91026428 537.5628598 -54.77365356 537.5866571 -53.6026001 537.61117554 C-51.20582264 537.64415532 -48.80855989 537.65102723 -46.41162109 537.63330078 C-42.76727948 537.62503917 -39.14521249 537.75499304 -35.50390625 537.89453125 C-24.12436648 538.37223503 -24.12436648 538.37223503 -13.77035522 534.46340942 C-10.07779741 530.80088544 -7.59065899 526.64332457 -5.19282532 522.06378174 C-3.17480854 518.5722846 -0.50328528 515.67115968 2.1875 512.6875 C3.19027519 511.54034854 4.19177643 510.39208088 5.19140625 509.2421875 C5.66723145 508.6965918 6.14305664 508.15099609 6.63330078 507.58886719 C8.6831874 505.20575499 10.65256943 502.75983917 12.625 500.3125 C16.47867585 495.56521815 20.53683859 491.04193957 24.671875 486.5390625 C28.80868687 482.02743881 32.80610823 477.40014509 36.78125 472.74609375 C37.8124583 471.53902687 38.84370948 470.33199663 39.875 469.125 C40.39473389 468.51640137 40.91446777 467.90780273 41.44995117 467.28076172 C44.47905595 463.74357043 47.55156303 460.25598946 50.6875 456.8125 C54.53851005 452.57291957 58.14843955 448.17067888 61.75 443.71875 C63.93501569 441.07852271 66.19171391 438.5327028 68.5 436 C72.38557285 431.73058373 76.06036421 427.32672932 79.69140625 422.83984375 C82.05671804 419.93023009 84.46214681 417.05776611 86.875 414.1875 C92.39252981 407.56646423 97.7569316 400.84049885 103 394 C103.50450684 393.34273926 104.00901367 392.68547852 104.52880859 392.00830078 C151.22520182 330.79249634 190.85248916 257.17352302 180.30859375 177.68359375 C179.51467871 173.02528406 178.33271705 168.52902182 177 164 C176.54662922 162.3129152 176.0948707 160.62539649 175.64453125 158.9375 C172.68369382 148.18854857 168.87586299 138.01892895 164 128 C163.64454102 127.25927246 163.28908203 126.51854492 162.92285156 125.75537109 C154.86322405 109.13976519 144.67105496 94.42678388 132 81 C130.89163214 79.69104585 129.78734603 78.37862271 128.6875 77.0625 C100.61671543 45.08231392 58.09076435 24.32168449 17.75 13.25 C16.68515381 12.95593262 15.62030762 12.66186523 14.52319336 12.35888672 C7.06291526 10.37047708 -0.35211423 9.02811382 -8 8 C-9.23886963 7.81775879 -10.47773926 7.63551758 -11.75415039 7.44775391 C-21.755597 6.05789195 -31.59544663 5.60232123 -41.6875 5.625 C-42.48082733 5.62454681 -43.27415466 5.62409363 -44.09152222 5.62362671 C-62.78232414 5.65467494 -81.12650069 7.54836903 -99.25610352 12.28637695 Z M-51 729 C-53.38436044 731.92626055 -53.23515652 735.01272829 -53.265625 738.70703125 C-52.89872541 741.87423799 -51.87591737 744.93428921 -51 748 C-45.39 748 -39.78 748 -34 748 C-31.73472215 739.37494873 -31.73472215 739.37494873 -33 731 C-35.65004544 727.88229948 -37.50341347 727.13543269 -41.4375 726.0625 C-45.58015449 725.98982185 -47.58205264 726.69487271 -51 729 Z M-61.73144531 792.03662109 C-63.47611001 794.73688929 -65.41433187 797.26891748 -67.36181641 799.82495117 C-68.88937715 801.83138422 -70.39035377 803.85592236 -71.890625 805.8828125 C-75.54812922 810.77420156 -79.41120267 815.48945485 -83.28466797 820.21020508 C-86.59786213 824.25464512 -89.83106746 828.34141701 -93 832.5 C-97.27204295 838.10358881 -101.69412026 843.56953366 -106.1550293 849.0234375 C-111.23457393 855.25002493 -116.14391571 861.59829971 -121 868 C-117.85568772 868.2063352 -117.85568772 868.2063352 -114.72218323 866.51499939 C-111.17669678 864.94159708 -108.36071906 864.66583154 -104.44506836 864.76000977 C-103.44214076 864.77825853 -103.44214076 864.77825853 -102.41895199 864.79687595 C-99.94530692 864.8477692 -97.47301156 864.9243963 -95 865 C-92.84500152 865.0542022 -90.68998046 865.10751143 -88.53494263 865.16012573 C-81.36241476 865.34294246 -74.19094181 865.5561752 -67.01944089 865.7747848 C-64.12907808 865.86263387 -61.23867244 865.9490278 -58.34826702 866.03546149 C-51.52906595 866.23943257 -44.70994493 866.44593842 -37.89086914 866.65405273 C-30.88237835 866.86790033 -23.87376379 867.07727655 -16.86507469 867.28451437 C-10.81277636 867.46363827 -4.76056755 867.64559335 1.29157883 867.82977968 C4.89154386 867.93930694 8.4915324 868.04778083 12.09161186 868.15348625 C16.09953703 868.27130605 20.10725939 868.39503261 24.11499023 868.51928711 C25.29179352 868.55309479 26.4685968 868.58690247 27.68106079 868.62173462 C33.84082318 868.81791689 39.88561291 869.22226441 46 870 C41.44170971 863.54242208 36.27203643 857.86199771 30.88671875 852.1015625 C28.11253562 849.1337487 25.43103277 846.09587691 22.7734375 843.0234375 C20.54861908 840.48498829 18.27496681 837.99358224 16 835.5 C12.54356229 831.70990918 9.13156146 827.88943967 5.76953125 824.015625 C3.74885044 821.71392236 1.68687382 819.45235621 -0.375 817.1875 C-3.40973184 813.83198275 -6.3041891 810.41161818 -9.125 806.875 C-13.75242603 801.1399454 -18.77482259 795.81215706 -23.85986328 790.48193359 C-24.48103027 789.82918457 -25.10219727 789.17643555 -25.7421875 788.50390625 C-26.2976123 787.92455322 -26.85303711 787.3452002 -27.42529297 786.74829102 C-29 785 -29 785 -30.43603516 782.83398438 C-32.38156889 780.55255299 -33.33463004 780.3944236 -36.28125 780.15234375 C-49.03567424 779.30728945 -54.90404268 781.26153035 -61.73144531 792.03662109 Z " fill="#314158" transform="translate(668,75)"/>
<path d="M0 0 C-0.36351562 0.47308594 -0.72703125 0.94617188 -1.1015625 1.43359375 C-4.94808806 6.4932543 -8.57823501 11.64382012 -12 17 C-12.53367187 17.81339844 -13.06734375 18.62679687 -13.6171875 19.46484375 C-19.77362955 29.35203294 -23.8330939 40.16327413 -28 51 C-28.43940918 52.14009521 -28.43940918 52.14009521 -28.88769531 53.30322266 C-37.46112964 75.83570089 -42.28507525 99.42537627 -47 123 C-47.18723633 123.92329102 -47.37447266 124.84658203 -47.56738281 125.79785156 C-57.27451209 174.49427854 -53.552802 228.28979407 -44.40527344 276.79296875 C-43.85511049 279.78903683 -43.41742404 282.79532977 -43 285.8125 C-42.84789062 286.8953125 -42.69578125 287.978125 -42.5390625 289.09375 C-42.24228469 291.24431381 -41.94712663 293.39511099 -41.65917969 295.546875 C-37.41410958 327.0141289 -30.8017081 358.08996669 -23.87646484 389.06152344 C-22.94208335 393.24905869 -22.02636337 397.44058857 -21.11328125 401.6328125 C-20.87834206 402.71099495 -20.87834206 402.71099495 -20.63865662 403.81095886 C-20.03108811 406.59990938 -19.42377262 409.38891483 -18.81686401 412.17800903 C-15.09043173 429.3508675 -15.09043173 429.3508675 -10.75 446.375 C-8.40234411 455.09132613 -6.40403293 463.87943642 -4.4375 472.6875 C-1.19478697 487.1961979 2.23111681 501.59766811 6.33837891 515.88989258 C7.48109417 519.91040517 8.40472181 523.85267719 9 528 C3.28174227 529.05919302 -2.36931328 529.83394694 -8 528 C-13.25082858 524.21556135 -16.80656968 518.56883564 -20.41845703 513.28759766 C-22.7397719 509.92996871 -25.27023408 506.7538646 -27.8125 503.5625 C-28.25811279 502.99031738 -28.70372559 502.41813477 -29.1628418 501.82861328 C-32.54946605 497.48723917 -36.16575918 493.4037148 -39.89453125 489.3515625 C-41.99077616 487.01030195 -43.93862666 484.59947303 -45.875 482.125 C-49.81638871 477.12156044 -54.07782635 472.47396506 -58.40625 467.80859375 C-61.06105202 464.93389096 -63.63845655 462.00489148 -66.19921875 459.046875 C-68.38775665 456.55925274 -70.63239191 454.12646548 -72.875 451.6875 C-76.99906676 447.17096163 -80.87936865 442.50866984 -84.71875 437.75 C-87.06718968 434.91900422 -89.50909902 432.20616402 -92 429.5 C-96.03954818 425.10621452 -99.84679619 420.58161176 -103.59375 415.9375 C-106.29780502 412.63644582 -109.08162759 409.41281426 -111.875 406.1875 C-117.8139354 399.29571413 -123.46421661 392.21812319 -129 385 C-129.55526367 384.28134766 -130.11052734 383.56269531 -130.68261719 382.82226562 C-144.63197785 364.72869622 -157.71429306 345.88145981 -169 326 C-169.46937988 325.18789063 -169.93875977 324.37578125 -170.42236328 323.5390625 C-183.8828771 300.13684635 -195.68009628 274.48100837 -202.125 248.1875 C-202.38434326 247.13578613 -202.64368652 246.08407227 -202.91088867 245.00048828 C-204.75634023 237.35597173 -206.24377372 229.83725419 -207 222 C-207.10957031 220.95070313 -207.21914063 219.90140625 -207.33203125 218.8203125 C-209.16204036 198.08020924 -208.76148644 177.10230421 -203 157 C-202.67386719 155.75347656 -202.34773438 154.50695312 -202.01171875 153.22265625 C-190.40939068 110.00953494 -162.09250026 71.17057153 -126 45 C-124.98035156 44.2471875 -123.96070313 43.494375 -122.91015625 42.71875 C-106.39760018 30.8913454 -88.06655976 20.69140059 -68.96264648 13.71923828 C-66.98686794 12.99518758 -65.02850216 12.23507961 -63.0703125 11.46484375 C-56.57843251 8.93833123 -50.31198724 6.56648454 -43.41015625 5.42578125 C-40.62084929 4.93301876 -37.92549332 4.22465795 -35.1875 3.5 C-23.35480862 0.53052204 -12.12811753 -0.28023892 0 0 Z " fill="#FDFDFD" transform="translate(607,83)"/>
<path d="M0 0 C10.39787785 5.09283813 16.48872572 15.2833248 22 25 C22.63679687 26.08667969 23.27359375 27.17335938 23.9296875 28.29296875 C34.43863943 46.96851585 41.21939408 67.44629061 47 88 C47.21382324 88.74523926 47.42764648 89.49047852 47.64794922 90.25830078 C49.71038505 97.46251543 51.43535736 104.60379888 52.5078125 112.0234375 C52.89696841 114.37690421 53.37607126 116.63237259 53.92578125 118.94921875 C55.38154769 125.3808646 56.18572258 131.906675 57.0625 138.4375 C57.23587891 139.69626953 57.40925781 140.95503906 57.58789062 142.25195312 C58.07548279 145.83323349 58.55927697 149.4126248 59 153 C59.0899675 153.72510269 59.179935 154.45020538 59.27262878 155.19728088 C60.06650237 162.21031113 60.16133085 169.16981645 60.16796875 176.22265625 C60.17296135 178.11013832 60.17296135 178.11013832 60.17805481 180.03575134 C60.18309951 182.69582668 60.18589904 185.3557998 60.18530273 188.01586914 C60.18518284 191.99828823 60.20558097 195.98051694 60.22460938 199.96289062 C60.26908704 220.0569453 59.87293094 240.08383941 55.76953125 259.8125 C54.78039279 264.83746974 54.29994019 269.91192206 53.75 275 C51.81160003 292.37078425 48.53297683 309.5308675 45.41204834 326.71972656 C44.81382008 330.03031877 44.22971359 333.34332705 43.64453125 336.65625 C41.4609835 348.88567894 38.97006419 361.0001117 36.05444336 373.07763672 C34.87129325 378.01096083 33.81456084 382.90950529 33.0234375 387.921875 C31.97629085 394.47998357 30.41905008 400.87202716 28.8125 407.3125 C28.1790171 409.8914675 27.54690761 412.47070793 26.91796875 415.05078125 C26.6771759 416.03777512 26.6771759 416.03777512 26.43151855 417.04470825 C24.74064549 424.00992579 23.1817379 431.00373027 21.625 438 C18.96887551 449.88250189 16.18143697 461.729586 13.3125 473.5625 C13.12608948 474.33537354 12.93967896 475.10824707 12.74761963 475.90454102 C10.63758268 484.64155498 8.38521992 493.30293862 5.87280273 501.93383789 C4.74146636 505.90823047 3.77785066 509.90607554 2.875 513.9375 C1.72673967 519.00977395 0.47019262 524.01045248 -1 529 C-2.98 529 -4.96 529 -7 529 C-9.491464 523.30522514 -10.6706137 517.74930017 -11.73144531 511.63208008 C-12.72835099 506.06559846 -14.07839452 500.64272178 -15.5625 495.1875 C-17.14705682 489.3614117 -18.54233824 483.60921399 -19.50561523 477.64233398 C-19.99407005 475.03169377 -20.64531374 472.5373066 -21.375 469.984375 C-23.09304433 463.78407019 -24.5021621 457.53446543 -25.875 451.25 C-26.1332959 450.07985352 -26.3915918 448.90970703 -26.65771484 447.70410156 C-27.9088693 442.02513531 -29.1438696 436.34295077 -30.359375 430.65625 C-30.78093218 428.68743192 -31.202798 426.7186799 -31.625 424.75 C-31.82907471 423.79778564 -32.03314941 422.84557129 -32.2434082 421.86450195 C-33.37128782 416.6707872 -34.62541867 411.55395688 -36.0625 406.4375 C-38.06526176 399.23728768 -39.36399035 391.95215399 -40.60571289 384.58569336 C-41.41257998 379.87126606 -42.45379016 375.53554886 -44 371 C-44.33733458 368.86087038 -44.62667791 366.71378015 -44.875 364.5625 C-45.53641791 359.53600048 -46.50863083 354.85794454 -47.91015625 349.97265625 C-50.01945136 342.35226593 -51.37370556 334.69267489 -52.5625 326.875 C-52.77457102 325.51984797 -52.98722573 324.16478716 -53.20043945 322.80981445 C-54.55589286 314.14302173 -55.84458954 305.46524847 -57.01196289 296.77099609 C-57.53028284 292.96890242 -58.1457191 289.23232265 -58.953125 285.48046875 C-60.47100173 278.10271556 -61.20324205 270.60176584 -62.0625 263.125 C-62.32223816 260.87924167 -62.5831978 258.63364966 -62.84727478 256.38839722 C-63.08476524 254.36750665 -63.31801716 252.3461193 -63.55102539 250.32470703 C-63.90319409 247.21599216 -63.90319409 247.21599216 -64.49543762 245.09469604 C-68.77410906 227.33174637 -67.40135252 207.14019573 -67.375 189 C-67.37512085 187.71172302 -67.3752417 186.42344604 -67.37536621 185.09613037 C-67.34870299 165.08042488 -66.45018908 145.72792648 -63 126 C-62.83983398 125.01725098 -62.67966797 124.03450195 -62.51464844 123.02197266 C-61.52574281 116.96991222 -60.34733999 110.98205171 -59 105 C-58.79681152 104.09121094 -58.59362305 103.18242187 -58.38427734 102.24609375 C-55.608822 90.05813453 -52.2252436 78.09869787 -48.4375 66.1875 C-48.07374268 65.03757568 -47.70998535 63.88765137 -47.33520508 62.70288086 C-45.28544731 56.40289683 -42.95832365 50.38295794 -40.10864258 44.40039062 C-39.03215341 42.06961734 -38.12207737 39.72607385 -37.25 37.3125 C-32.10349738 24.33256567 -23.70158915 7.65360643 -11.0390625 0.7421875 C-7.28890117 -0.62281375 -3.90335136 -0.7660783 0 0 Z " fill="#FDFDFD" transform="translate(630,82)"/>
<path d="M0 0 C71.35007022 0 71.35007022 0 98.0234375 0.65625 C100.68073115 0.71645455 103.33803942 0.7760167 105.99536133 0.83496094 C115.45541667 1.04900796 124.91519639 1.27510263 134.375 1.5 C155.70125 1.995 177.0275 2.49 199 3 C199 51.51 199 100.02 199 150 C176.43144389 150 153.88940746 149.96134352 131.328125 149.59765625 C128.56785762 149.55476224 125.8075793 149.51258778 123.04730225 149.47032166 C117.33374782 149.38238212 111.62023323 149.29215667 105.90673828 149.20043945 C99.40775588 149.09614243 92.90872296 148.99565271 86.40965009 148.89716727 C80.01363115 148.80014341 73.61765939 148.70027041 67.22170258 148.59924126 C64.56396388 148.55730789 61.90621575 148.51643341 59.24845123 148.4761219 C39.48905983 148.17433925 19.75613513 147.59867076 0 147 C0 98.49 0 49.98 0 0 Z " fill="#CDD2D8" transform="translate(497,984)"/>
<path d="M0 0 C-3.00631643 2.00421095 -5.98776548 3.450811 -9.25 5 C-33.3580889 16.81179188 -53.1935304 35.52210609 -69 57 C-69.63164063 57.84820312 -70.26328125 58.69640625 -70.9140625 59.5703125 C-81.63058101 74.39727647 -90.5687363 90.76327779 -96.85546875 107.94140625 C-97.96738388 110.91283815 -99.21507777 113.78747429 -100.5 116.6875 C-114.20966527 149.53896207 -115.17578619 188.86812779 -109.40136719 223.56005859 C-109.03741292 225.77256402 -108.71763854 227.98560027 -108.4140625 230.20703125 C-105.80327783 248.16028606 -99.85675403 265.69488274 -94.1875 282.875 C-93.9100293 283.71772461 -93.63255859 284.56044922 -93.34667969 285.42871094 C-91.85994475 289.82388237 -90.1056788 293.85675061 -88 298 C-87.17763267 300.23896138 -86.38693642 302.48975908 -85.625 304.75 C-83.88008426 309.72067986 -81.95518571 314.35068433 -79.49780273 319.00170898 C-77.65647724 322.68766145 -76.02234282 326.44704017 -74.375 330.22265625 C-70.28049272 339.51147458 -65.86864026 348.61771325 -61.3125 357.6875 C-60.92226654 358.46680878 -60.53203308 359.24611755 -60.12997437 360.04904175 C-53.99251077 372.2882706 -47.52164682 384.27735342 -40.65234375 396.12304688 C-37.47718224 401.65143092 -34.40112611 407.23548383 -31.3125 412.8125 C-30.67723389 413.9576709 -30.04196777 415.1028418 -29.38745117 416.28271484 C-27.59086623 419.52138483 -25.79533939 422.76063943 -24 426 C-22.2091062 429.2295961 -20.41737918 432.45872806 -18.625 435.6875 C-18.22539063 436.40800537 -17.82578125 437.12851074 -17.4140625 437.87084961 C-15.59612385 441.14472459 -13.76994783 444.41321403 -11.91796875 447.66796875 C-5.38531397 459.15853736 0.82543324 470.81949412 7.04786682 482.47979736 C9.3214322 486.73743896 11.60790834 490.98794748 13.90234375 495.234375 C14.52794189 496.39275879 15.15354004 497.55114258 15.7980957 498.74462891 C16.97907234 500.92982235 18.16112716 503.11443359 19.34448242 505.29833984 C29 523.17657419 29 523.17657419 29 526 C24.31450669 527.19083136 20.67359034 527.32772453 16 526 C10.98283457 522.00600112 7.34993029 516.4621027 3.64599609 511.28759766 C1.25729606 507.96779354 -1.27462252 504.76866574 -3.8125 501.5625 C-4.25779053 500.99031738 -4.70308105 500.41813477 -5.16186523 499.82861328 C-8.55016122 495.48832253 -12.16560007 491.40388772 -15.89453125 487.3515625 C-17.99077616 485.01030195 -19.93862666 482.59947303 -21.875 480.125 C-25.81638871 475.12156044 -30.07782635 470.47396506 -34.40625 465.80859375 C-37.06105202 462.93389096 -39.63845655 460.00489148 -42.19921875 457.046875 C-44.38775665 454.55925274 -46.63239191 452.12646548 -48.875 449.6875 C-52.99906676 445.17096163 -56.87936865 440.50866984 -60.71875 435.75 C-63.06718968 432.91900422 -65.50909902 430.20616402 -68 427.5 C-72.03954818 423.10621452 -75.84679619 418.58161176 -79.59375 413.9375 C-82.29780502 410.63644582 -85.08162759 407.41281426 -87.875 404.1875 C-93.8139354 397.29571413 -99.46421661 390.21812319 -105 383 C-105.55526367 382.28134766 -106.11052734 381.56269531 -106.68261719 380.82226562 C-120.63197785 362.72869622 -133.71429306 343.88145981 -145 324 C-145.46937988 323.18789063 -145.93875977 322.37578125 -146.42236328 321.5390625 C-159.8828771 298.13684635 -171.68009628 272.48100837 -178.125 246.1875 C-178.38434326 245.13578613 -178.64368652 244.08407227 -178.91088867 243.00048828 C-180.75634023 235.35597173 -182.24377372 227.83725419 -183 220 C-183.10957031 218.95070313 -183.21914063 217.90140625 -183.33203125 216.8203125 C-185.16204036 196.08020924 -184.76148644 175.10230421 -179 155 C-178.67386719 153.75347656 -178.34773438 152.50695312 -178.01171875 151.22265625 C-166.40939068 108.00953494 -138.09250026 69.17057153 -102 43 C-100.98035156 42.2471875 -99.96070313 41.494375 -98.91015625 40.71875 C-82.39760018 28.8913454 -64.06655976 18.69140059 -44.96264648 11.71923828 C-42.98686794 10.99518758 -41.02850216 10.23507961 -39.0703125 9.46484375 C-32.59046858 6.94301544 -26.3323365 4.56459245 -19.44140625 3.43359375 C-15.4880119 2.73147091 -11.6363585 1.63090042 -7.76171875 0.5859375 C-5.0816817 0.01732992 -2.72937256 -0.10937376 0 0 Z " fill="#FCFCFC" transform="translate(583,85)"/>
<path d="M0 0 C5.87699752 -0.22401112 10.63955776 0.43268027 16.25 2.125 C17.0143335 2.34728271 17.77866699 2.56956543 18.56616211 2.79858398 C20.19707854 3.27504445 21.82653134 3.7565395 23.45458984 4.24267578 C26.06574921 5.01956206 28.68250806 5.77481203 31.30078125 6.52734375 C33.05495459 7.03814615 34.80886747 7.549844 36.5625 8.0625 C37.37041992 8.29533691 38.17833984 8.52817383 39.01074219 8.76806641 C44.57102095 10.42239264 49.74815353 12.54753575 55 15 C55.84344971 15.38164307 56.68689941 15.76328613 57.5559082 16.15649414 C80.5810765 26.60079251 102.15915073 39.55270735 120.71875 56.875 C122.25183451 58.30307872 123.81547479 59.69897839 125.40625 61.0625 C148.96198524 81.33832274 166.56138515 110.57504378 176 140 C176.22236328 140.67691895 176.44472656 141.35383789 176.67382812 142.05126953 C182.25975476 159.23475752 184.54622669 175.61358244 184.375 193.625 C184.37034729 194.49985046 184.36569458 195.37470093 184.36090088 196.27606201 C184.02480769 250.30335059 162.85305699 301.48652767 133 346 C132.22922119 347.15822266 132.22922119 347.15822266 131.44287109 348.33984375 C121.35900736 363.45168137 110.87390379 378.38848509 99.20703125 392.328125 C97.06047665 394.9267858 94.98574727 397.5690542 92.92016602 400.23193359 C88.53610741 405.88289997 84.02504416 411.30640216 79.1796875 416.57421875 C76.86407108 419.15127574 74.67794934 421.80582391 72.5 424.5 C68.8873417 428.96564707 65.11106455 433.23284615 61.2421875 437.4765625 C58.95484096 440.05082358 56.78451729 442.69289489 54.625 445.375 C50.46036631 450.52254549 46.04694859 455.38352388 41.55078125 460.23828125 C35.23405009 467.07737608 29.23849629 474.2037629 23.1875 481.27734375 C21.08768 483.73163705 18.98347363 486.1820438 16.875 488.62890625 C1.16730833 506.71342673 1.16730833 506.71342673 -13 526 C-15.8203125 526.29296875 -15.8203125 526.29296875 -19.125 526.1875 C-20.22070312 526.16042969 -21.31640625 526.13335938 -22.4453125 526.10546875 C-23.70988281 526.05326172 -23.70988281 526.05326172 -25 526 C-19.71254041 514.36503458 -14.02664413 503.21898313 -7.390625 492.29882812 C-4.80954144 488.032065 -2.28386171 483.7324127 0.25 479.4375 C0.79567627 478.51388672 1.34135254 477.59027344 1.90356445 476.63867188 C11.44502769 460.48410722 20.88734272 444.28837267 30.01342773 427.89477539 C33.43483249 421.7591565 36.91627905 415.66720845 40.5 409.625 C44.13874305 403.48587956 47.65758401 397.30706507 51 391 C51.32339355 390.3915625 51.64678711 389.783125 51.97998047 389.15625 C54.49082382 384.42781707 56.97784227 379.68722355 59.45751953 374.94238281 C61.14945237 371.71490979 62.85451932 368.49451504 64.55859375 365.2734375 C75.1337165 345.20776268 85.14235245 324.84758057 92.71875 303.4296875 C93.71822591 300.75426114 94.78566639 298.18981109 95.95703125 295.58984375 C107.79761513 269.24911573 114.03430976 239.47904286 118 211 C118.1750708 209.96166016 118.3501416 208.92332031 118.53051758 207.85351562 C119.10871237 203.10768795 119.16226849 198.45195156 119.16796875 193.67578125 C119.17129715 192.6931279 119.17462555 191.71047455 119.17805481 190.69804382 C119.18310017 188.62462835 119.18546388 186.55120481 119.18530273 184.4777832 C119.187481 181.33986682 119.20563986 178.20230707 119.22460938 175.06445312 C119.25238853 165.17280806 119.13601137 155.70530201 117 146 C116.81179688 144.73671875 116.62359375 143.4734375 116.4296875 142.171875 C108.61423193 93.95821951 77.12984456 49.70549866 38.0625 21.25 C27.65679376 13.82438821 17.07492938 7.3633913 5 3 C3.3313982 2.33819169 1.66423512 1.67271367 0 1 C0 0.67 0 0.34 0 0 Z " fill="#DBDFE4" transform="translate(665,85)"/>
<path d="M0 0 C0.80044739 -0.0033284 1.60089478 -0.0066568 2.42559814 -0.01008606 C4.10289948 -0.01511227 5.78021067 -0.01749573 7.45751953 -0.01733398 C10.02262567 -0.01953726 12.5873125 -0.0377837 15.15234375 -0.05664062 C16.78906104 -0.05957212 18.42578036 -0.06155855 20.0625 -0.0625 C20.82608826 -0.06968552 21.58967651 -0.07687103 22.37640381 -0.08427429 C26.15804935 -0.06799385 29.05915106 0.04312711 32.265625 2.16796875 C31.275625 2.49796875 30.285625 2.82796875 29.265625 3.16796875 C29.78769531 3.74160156 30.30976562 4.31523438 30.84765625 4.90625 C44.44573804 20.60000814 53.89828612 40.05607437 60.1484375 59.74609375 C61.09533148 62.64637042 62.14409908 65.42184912 63.328125 68.23046875 C65.5950239 73.76170208 67.17450482 79.44196857 68.72705078 85.20898438 C69.26538957 87.1671124 69.83877665 89.11219964 70.41796875 91.05859375 C81.35871528 128.83621791 84.36216128 169.01517326 83.265625 208.16796875 C83.23356964 209.42924591 83.23356964 209.42924591 83.2008667 210.71600342 C82.79410289 225.59208006 81.37507372 240.1760044 79.390625 254.91796875 C79.13067498 256.91655818 78.87155945 258.91525633 78.61328125 260.9140625 C77.12201986 272.34716414 75.43244287 283.73759236 73.59240723 295.1192627 C73.118469 298.09053849 72.67699325 301.06631227 72.23828125 304.04296875 C70.43277602 316.23448317 68.35824425 328.28957295 65.67529297 340.31884766 C64.56071102 345.34974377 63.58953128 350.40932375 62.65625 355.4765625 C59.68167156 371.62191325 56.61569279 387.76043309 52.21875 403.5859375 C51.18011319 407.48933894 50.30312863 411.40775315 49.453125 415.35546875 C46.47503295 429.13067644 42.91648577 442.77460268 39.43383789 456.42919922 C37.79074968 462.9115337 36.40916859 469.36367365 35.20703125 475.94140625 C34.20100534 480.82897395 32.75044412 485.59257989 31.36010742 490.38183594 C29.56069705 496.60651941 27.85679809 502.85742413 26.140625 509.10546875 C25.45082023 511.61466566 24.7607255 514.12378288 24.0703125 516.6328125 C23.77108887 517.72198975 23.47186523 518.81116699 23.16357422 519.93334961 C22.21505339 523.35013929 21.24376404 526.75955525 20.265625 530.16796875 C17.955625 530.16796875 15.645625 530.16796875 13.265625 530.16796875 C13.8677087 525.59112131 14.66623562 521.1534837 15.75390625 516.66796875 C16.04587891 515.45939209 16.33785156 514.25081543 16.63867188 513.00561523 C16.94869141 511.73919189 17.25871094 510.47276855 17.578125 509.16796875 C17.90046783 507.84254807 18.22273303 506.51710851 18.54492188 505.19165039 C20.33638243 497.84414228 22.20087314 490.52466177 24.18359375 483.2265625 C28.76406268 466.20256066 32.80390705 449.04608529 36.63110352 431.83935547 C38.64945153 422.79393515 40.80208492 413.7920388 43.015625 404.79296875 C45.17620578 395.98237246 47.10322902 387.22467098 48.53759766 378.26855469 C49.22112971 374.23394234 50.15871461 370.27264907 51.13671875 366.30078125 C53.28699347 357.35137851 55.00801294 348.34902353 56.640625 339.29296875 C56.94026741 337.64476068 57.23999243 335.99656763 57.53979492 334.34838867 C58.30610462 330.12292189 59.06451812 325.89608434 59.81915283 321.66851807 C60.25691127 319.21677161 60.69652589 316.7653629 61.13623047 314.31396484 C65.0336997 292.87440255 65.0336997 292.87440255 67.6496582 271.25170898 C68.06748782 266.59658288 68.81512044 262.11756459 69.765625 257.54296875 C73.81542736 236.94174157 73.66750797 215.64343113 73.640625 194.73046875 C73.64180328 192.76944214 73.64180328 192.76944214 73.64300537 190.76879883 C73.6283004 170.27820813 72.64184403 150.38811356 69.265625 130.16796875 C69.01377441 128.52828125 69.01377441 128.52828125 68.75683594 126.85546875 C67.95779336 121.75160385 66.9917592 117.04924988 65.265625 112.16796875 C64.81696119 109.79880499 64.40317026 107.42289412 64.015625 105.04296875 C62.42948026 96.05937309 59.86301929 87.45272064 57.09375 78.77099609 C56.27110902 76.18520655 55.47138533 73.5930197 54.671875 71 C47.14966658 47.07816359 36.73648248 18.97994143 16.265625 3.16796875 C12.70173116 1.38602183 9.15014871 1.57737502 5.265625 2.16796875 C-8.51394075 7.37731678 -16.98740556 26.58007873 -22.734375 39.16796875 C-24.16771716 42.63620669 -25.40105932 46.15908283 -26.56640625 49.7265625 C-27.50087167 52.47995391 -28.51992072 55.12314095 -29.625 57.80859375 C-39.45742922 82.14848539 -44.97231146 108.14207325 -48.44387817 134.07278442 C-48.65410296 135.5890133 -48.87529433 137.10373511 -49.10324097 138.61740112 C-51.47926892 154.3963142 -52.17655625 169.86443433 -52.07055664 185.81274414 C-52.04691734 189.59868753 -52.0500333 193.38392283 -52.05664062 197.16992188 C-52.03385415 217.66461232 -50.90606268 237.9112916 -47.734375 258.16796875 C-47.39397202 260.69306745 -47.06092396 263.21916609 -46.734375 265.74609375 C-46.569375 267.009375 -46.404375 268.27265625 -46.234375 269.57421875 C-45.89904287 272.15208453 -45.56573302 274.73021413 -45.234375 277.30859375 C-44.41739707 283.53805044 -43.49022042 289.68234833 -42.19433594 295.82958984 C-41.37871623 299.9760896 -40.89010152 304.164772 -40.359375 308.35546875 C-38.28622904 324.00805623 -35.95182522 339.53189299 -31.609375 354.73046875 C-30.40560271 359.45957419 -29.78555457 364.20417842 -29.2265625 369.046875 C-28.83058018 372.13471661 -28.83058018 372.13471661 -27.82421875 374.84375 C-26.22100683 379.73383366 -25.38175515 384.74279885 -24.421875 389.79296875 C-22.87501914 397.74896983 -21.20584128 405.63449503 -19.171875 413.48046875 C-17.51372776 419.88839729 -16.05142299 426.29378549 -14.796875 432.79296875 C-13.24677819 440.81037816 -11.50661569 448.77333342 -9.671875 456.73046875 C-9.30364624 458.33559326 -9.30364624 458.33559326 -8.92797852 459.97314453 C-7.54622234 465.91955655 -6.04858902 471.8139291 -4.37890625 477.6862793 C-3.7127161 480.25136374 -3.23093412 482.80435683 -2.796875 485.41796875 C-2.04786959 489.81837555 -0.98852608 494.0537889 0.203125 498.35546875 C2.03723714 505.030546 3.37655992 511.69243913 4.5546875 518.51171875 C5.2640525 522.15988158 6.2137145 525.60765628 7.265625 529.16796875 C7.265625 529.49796875 7.265625 529.82796875 7.265625 530.16796875 C4.955625 530.16796875 2.645625 530.16796875 0.265625 530.16796875 C-0.34486667 528.42016519 -0.94729661 526.66954607 -1.546875 524.91796875 C-1.88332031 523.9434375 -2.21976563 522.96890625 -2.56640625 521.96484375 C-5.37455116 512.83602483 -7.37256361 503.47725239 -9.484375 494.16796875 C-11.63742315 484.74061068 -13.91990627 475.35373721 -16.296875 465.98046875 C-18.7071038 456.4658193 -20.96066225 446.93694949 -22.96118164 437.32739258 C-24.06578621 432.06148902 -25.30247909 426.84015004 -26.625 421.625 C-28.85186415 412.8216933 -30.85361195 403.97525617 -32.796875 395.10546875 C-32.98324524 394.25600677 -33.16961548 393.4065448 -33.3616333 392.53134155 C-36.67008835 377.40744631 -39.81800696 362.25100732 -42.88278198 347.07595825 C-43.35988198 344.71506573 -43.83908345 342.35459671 -44.32058716 339.99459839 C-47.18948504 325.90447293 -49.63519473 311.85525246 -51.41999817 297.58647156 C-51.94566981 293.54247654 -52.55882175 289.51198644 -53.171875 285.48046875 C-53.37574829 284.11523071 -53.37574829 284.11523071 -53.58374023 282.72241211 C-54.26914523 278.18091561 -54.9777489 273.64404268 -55.70703125 269.109375 C-63.20329752 221.78941803 -66.15718468 171.56698903 -56.38671875 124.375 C-55.77559827 121.37062926 -55.19777816 118.36120545 -54.62939453 115.34849548 C-50.27112543 92.32498948 -44.73008174 69.88494391 -35.734375 48.16796875 C-35.40574463 47.34780273 -35.07711426 46.52763672 -34.73852539 45.68261719 C-28.54699286 30.24934478 -21.61270072 15.12495888 -9.734375 3.16796875 C-12.044375 2.83796875 -14.354375 2.50796875 -16.734375 2.16796875 C-16.734375 1.83796875 -16.734375 1.50796875 -16.734375 1.16796875 C-11.11661386 0.37184131 -5.67014102 0.008352 0 0 Z " fill="#AFB4BC" transform="translate(615.734375,80.83203125)"/>
<path d="M0 0 C0.2571242 18.00213348 0.45101415 36.00378963 0.56993389 54.00736332 C0.62662223 62.36710604 0.70388284 70.72570703 0.82983398 79.0847168 C0.93958045 86.37175224 1.01046391 93.65796087 1.03497344 100.94579977 C1.04929914 104.80412671 1.08287774 108.66008876 1.16303062 112.51765633 C1.23793332 116.15212918 1.26068747 119.7832742 1.24418449 123.41844559 C1.24863533 125.38204271 1.30772419 127.34528 1.36862183 129.30793762 C1.32304562 132.86206207 1.17005448 135.64114405 0 139 C-3.29861344 142.19697883 -6.88482394 144.03375811 -11 146 C-12.7726499 147.07381015 -14.53510408 148.16485834 -16.28125 149.28125 C-18.02041755 150.3548405 -19.76000505 151.427751 -21.5 152.5 C-28.09667125 156.5673534 -34.66439794 160.66251411 -41.13671875 164.92578125 C-43 166 -43 166 -45 166 C-45 118.48 -45 70.96 -45 22 C-39.72 19.36 -34.44 16.72 -29 14 C-23.59614085 11.19250401 -18.19460572 8.3816675 -12.80761719 5.54199219 C-11.05332814 4.61813582 -9.29624277 3.69959534 -7.5390625 2.78125 C-6.52021973 2.24564453 -5.50137695 1.71003906 -4.45166016 1.15820312 C-2 0 -2 0 0 0 Z " fill="#959CA6" transform="translate(749,964)"/>
<path d="M0 0 C1.05619537 -0.00204689 1.05619537 -0.00204689 2.13372803 -0.00413513 C4.48503046 -0.0061903 6.83620991 0.00024574 9.1875 0.0078125 C10.40499939 0.00964035 10.40499939 0.00964035 11.64709473 0.01150513 C36.81848838 0.0553353 62.00128662 0.61803828 87.1472168 1.75537109 C105.81343232 2.55168718 124.50892205 2.76212539 143.1875 3.1328125 C143.1875 3.7928125 143.1875 4.4528125 143.1875 5.1328125 C144.486875 5.2359375 145.78625 5.3390625 147.125 5.4453125 C154.81889421 6.32980743 161.17814479 7.83072047 166.1875 14.1328125 C166.1875 14.7928125 166.1875 15.4528125 166.1875 16.1328125 C163.6051393 17.50966359 161.02163695 18.88430189 158.4375 20.2578125 C157.37208984 20.82628906 157.37208984 20.82628906 156.28515625 21.40625 C154.7634621 22.2142292 153.23524438 23.01000064 151.7019043 23.7956543 C149.95445734 24.7249452 148.24060231 25.7190961 146.55786133 26.76098633 C137.56416304 31.99240215 129.41879441 31.8514737 119.375 31.5703125 C117.51810776 31.5413252 115.66116851 31.51523843 113.80419922 31.49169922 C109.61526604 31.433516 105.42717295 31.35638191 101.23876953 31.26806641 C94.28204569 31.126444 87.32511898 31.04789729 80.36738586 30.97819138 C35.62868085 30.52524518 -9.09035357 29.39830986 -53.8125 28.1328125 C-53.8125 27.4728125 -53.8125 26.8128125 -53.8125 26.1328125 C-52.0546875 25.15625 -50.296875 24.1796875 -48.5390625 23.203125 C-47.41169678 22.57680176 -46.28433105 21.95047852 -45.12280273 21.30517578 C-42.65881311 19.93628808 -40.19477901 18.56748047 -37.73071289 17.19873047 C-32.18042866 14.11555803 -26.63034538 11.03202958 -21.08203125 7.9453125 C-20.25429199 7.48495605 -19.42655273 7.02459961 -18.57373047 6.55029297 C-17.05563373 5.70591347 -15.53772194 4.86120135 -14.02001953 4.01611328 C-8.74382092 1.08206315 -6.07538785 0.00538598 0 0 Z " fill="#C5CAD1" transform="translate(563.8125,947.8671875)"/>
<path d="M0 0 C-3.00631643 2.00421095 -5.98776548 3.450811 -9.25 5 C-33.3580889 16.81179188 -53.1935304 35.52210609 -69 57 C-69.63164063 57.84820312 -70.26328125 58.69640625 -70.9140625 59.5703125 C-81.63058101 74.39727647 -90.5687363 90.76327779 -96.85546875 107.94140625 C-97.96738388 110.91283815 -99.21507777 113.78747429 -100.5 116.6875 C-114.20966527 149.53896207 -115.17578619 188.86812779 -109.40136719 223.56005859 C-109.03741292 225.77256402 -108.71763854 227.98560027 -108.4140625 230.20703125 C-105.80327783 248.16028606 -99.85675403 265.69488274 -94.1875 282.875 C-93.77129395 284.13908691 -93.77129395 284.13908691 -93.34667969 285.42871094 C-91.85994475 289.82388237 -90.1056788 293.85675061 -88 298 C-87.17763267 300.23896138 -86.38693642 302.48975908 -85.625 304.75 C-83.88008426 309.72067986 -81.95518571 314.35068433 -79.49780273 319.00170898 C-77.65647724 322.68766145 -76.02234282 326.44704017 -74.375 330.22265625 C-70.28049272 339.51147458 -65.86864026 348.61771325 -61.3125 357.6875 C-60.92226654 358.46680878 -60.53203308 359.24611755 -60.12997437 360.04904175 C-53.99251077 372.2882706 -47.52164682 384.27735342 -40.65234375 396.12304688 C-37.47718224 401.65143092 -34.40112611 407.23548383 -31.3125 412.8125 C-30.67723389 413.9576709 -30.04196777 415.1028418 -29.38745117 416.28271484 C-27.59086623 419.52138483 -25.79533939 422.76063943 -24 426 C-22.2091062 429.2295961 -20.41737918 432.45872806 -18.625 435.6875 C-18.22539063 436.40800537 -17.82578125 437.12851074 -17.4140625 437.87084961 C-15.59612385 441.14472459 -13.76994783 444.41321403 -11.91796875 447.66796875 C-5.38531397 459.15853736 0.82543324 470.81949412 7.04786682 482.47979736 C9.3214322 486.73743896 11.60790834 490.98794748 13.90234375 495.234375 C14.52794189 496.39275879 15.15354004 497.55114258 15.7980957 498.74462891 C16.97907234 500.92982235 18.16112716 503.11443359 19.34448242 505.29833984 C29 523.17657419 29 523.17657419 29 526 C25.875 526.5625 25.875 526.5625 22 526 C17.31837157 521.34137712 14.72652174 514.58926284 11.87109375 508.72265625 C9.53008996 503.9919052 6.97459099 499.37758556 4.4375 494.75 C3.92380859 493.81293213 3.41011719 492.87586426 2.88085938 491.91040039 C1.80493893 489.94803081 0.72892784 487.98571092 -0.34716797 486.0234375 C-2.56889188 481.95935642 -4.7709739 477.88479778 -6.97216797 473.80957031 C-15.61793019 457.80533218 -24.42351996 441.93242147 -33.61474609 426.234375 C-47.06755894 403.23264583 -60.24906781 380.0100026 -71.97705078 356.07373047 C-73.1375612 353.72113487 -74.31561216 351.37779314 -75.49609375 349.03515625 C-83.76983733 332.61092785 -91.60818046 316.15464601 -97.63110352 298.75292969 C-98.93106064 295.00161308 -100.26404861 291.27134083 -101.69140625 287.56640625 C-109.72407912 266.64803437 -116.74346214 244.18719015 -118.74072266 221.76757812 C-118.82366773 219.9773335 -118.82366773 219.9773335 -120 219 C-121.10267331 213.1552907 -121.19263014 207.37664155 -121.23828125 201.44140625 C-121.246353 200.42062485 -121.25442474 199.39984344 -121.26274109 198.34812927 C-121.27653958 196.18384472 -121.28728057 194.01953879 -121.29516602 191.85522461 C-121.30656213 189.69044392 -121.32681121 187.52568847 -121.35668945 185.36108398 C-121.63554171 165.09833932 -119.5667665 145.46784216 -113.5 126.0625 C-113.07654297 124.62100586 -113.07654297 124.62100586 -112.64453125 123.15039062 C-111.0714465 117.92931522 -109.23411092 112.96509528 -106.92285156 108.02539062 C-105.9361013 105.85976096 -105.08595975 103.66523054 -104.25 101.4375 C-101.33117697 94.06000241 -97.63753125 87.04245099 -94 80 C-93.48179687 78.99324219 -92.96359375 77.98648438 -92.4296875 76.94921875 C-83.6146021 60.30653019 -72.00704594 45.5398846 -59 32 C-58.44231934 31.41508789 -57.88463867 30.83017578 -57.31005859 30.22753906 C-50.38346308 22.99662504 -43.59779954 16.26961907 -35 11 C-36.98 11 -38.96 11 -41 11 C-34.62041909 6.74694606 -27.1025921 4.83119045 -19.6171875 3.50390625 C-15.6138832 2.73312079 -11.69654108 1.64713124 -7.76171875 0.5859375 C-5.0816817 0.01732992 -2.72937256 -0.10937376 0 0 Z " fill="#AFB3BC" transform="translate(583,85)"/>
<path d="M0 0 C5.87733373 -0.22402393 10.63912555 0.43336512 16.25 2.125 C17.00780762 2.34438232 17.76561523 2.56376465 18.54638672 2.78979492 C21.03470409 3.51430907 23.51749954 4.25581258 26 5 C27.87237586 5.55605683 29.7447721 6.11204507 31.6171875 6.66796875 C36.41581353 8.09779436 41.20903944 9.54470822 46 11 C44.68 11.33 43.36 11.66 42 12 C42 12.99 42 13.98 42 15 C42.5671875 15.25910156 43.134375 15.51820312 43.71875 15.78515625 C52.86436988 20.65551204 60.50243954 28.91375169 68 36 C68.85722656 36.80308594 69.71445312 37.60617188 70.59765625 38.43359375 C97.22841801 64.1358662 115.09059632 98.60783161 124.3125 134.125 C124.56708984 135.07737549 124.82167969 136.02975098 125.08398438 137.01098633 C132.95056204 168.52820466 129.64304063 206.52420026 123 238 C122.79181641 239.00869141 122.58363281 240.01738281 122.36914062 241.05664062 C118.48216364 259.51034691 112.86508292 277.45171955 106 295 C105.20819899 297.08328228 104.41652787 299.16661393 103.625 301.25 C102.75256444 303.5009956 101.87723381 305.75086998 101 308 C100.70867187 308.7532959 100.41734375 309.5065918 100.1171875 310.28271484 C96.38729938 319.90499227 92.52831253 329.28761929 87.7734375 338.453125 C85.73344637 342.53310726 83.93188416 346.68828483 82.125 350.875 C79.30214831 357.35299548 76.17123331 363.51121512 72.62841797 369.62207031 C69.31135162 375.36234092 66.27570556 381.22688867 63.25 387.125 C57.79335566 397.69713962 51.84794485 407.9140913 45.72363281 418.10986328 C42.01151691 424.33422987 38.39122452 430.61288927 34.75634766 436.88256836 C32.34575109 441.02872365 29.92476202 445.15264504 27.34375 449.1953125 C25.77416057 451.67505017 24.38655716 454.15897083 23.109375 456.80078125 C20.51111546 462.13918925 17.36048383 467.13634023 14.25 472.1875 C13.30966919 473.72313599 13.30966919 473.72313599 12.3503418 475.28979492 C10.57019499 478.19523976 8.78591021 481.09809529 7 484 C6.23041083 485.25256858 5.46086871 486.50516607 4.69140625 487.7578125 C-0.39705109 496.03052277 -0.39705109 496.03052277 -2.34863281 499.16845703 C-3.84077709 501.56806662 -5.32679957 503.97139666 -6.8125 506.375 C-7.28131592 507.12499268 -7.75013184 507.87498535 -8.2331543 508.64770508 C-10.90862016 512.98801286 -13.11760867 517.25962582 -15 522 C-15.66 522 -16.32 522 -17 522 C-17.33 523.32 -17.66 524.64 -18 526 C-20.31 526 -22.62 526 -25 526 C-19.71254041 514.36503458 -14.02664413 503.21898313 -7.390625 492.29882812 C-4.80954144 488.032065 -2.28386171 483.7324127 0.25 479.4375 C0.79567627 478.51388672 1.34135254 477.59027344 1.90356445 476.63867188 C11.44502769 460.48410722 20.88734272 444.28837267 30.01342773 427.89477539 C33.43483249 421.7591565 36.91627905 415.66720845 40.5 409.625 C44.13874305 403.48587956 47.65758401 397.30706507 51 391 C51.32339355 390.3915625 51.64678711 389.783125 51.97998047 389.15625 C54.49082382 384.42781707 56.97784227 379.68722355 59.45751953 374.94238281 C61.14945237 371.71490979 62.85451932 368.49451504 64.55859375 365.2734375 C75.1337165 345.20776268 85.14235245 324.84758057 92.71875 303.4296875 C93.71822591 300.75426114 94.78566639 298.18981109 95.95703125 295.58984375 C107.79761513 269.24911573 114.03430976 239.47904286 118 211 C118.1750708 209.96166016 118.3501416 208.92332031 118.53051758 207.85351562 C119.10871237 203.10768795 119.16226849 198.45195156 119.16796875 193.67578125 C119.17129715 192.6931279 119.17462555 191.71047455 119.17805481 190.69804382 C119.18310017 188.62462835 119.18546388 186.55120481 119.18530273 184.4777832 C119.187481 181.33986682 119.20563986 178.20230707 119.22460938 175.06445312 C119.25238853 165.17280806 119.13601137 155.70530201 117 146 C116.81179688 144.73671875 116.62359375 143.4734375 116.4296875 142.171875 C108.61423193 93.95821951 77.12984456 49.70549866 38.0625 21.25 C27.65679376 13.82438821 17.07492938 7.3633913 5 3 C3.3313982 2.33819169 1.66423512 1.67271367 0 1 C0 0.67 0 0.34 0 0 Z " fill="#A9AEB7" transform="translate(665,85)"/>
<path d="M0 0 C0.33 0 0.66 0 1 0 C1.79781655 6.37008533 2.18284652 12.61043285 2.23828125 19.02734375 C2.25297203 20.43449394 2.25297203 20.43449394 2.26795959 21.87007141 C2.4344664 41.94983866 2.34564824 61.30685729 -2 81 C-2.34538818 82.63702881 -2.34538818 82.63702881 -2.69775391 84.30712891 C-5.5434096 97.7185458 -8.92339762 110.9134154 -13 124 C-13.52400391 125.78470703 -13.52400391 125.78470703 -14.05859375 127.60546875 C-15.68320065 133.09878934 -17.4650853 138.30360159 -19.89453125 143.48828125 C-20.98988554 145.97701909 -21.9347904 148.49849191 -22.85839844 151.05517578 C-32.22624421 176.93043911 -44.63589858 201.76752333 -57.25 226.1875 C-58.08108276 227.79794189 -58.08108276 227.79794189 -58.92895508 229.44091797 C-62.77564459 236.82223395 -66.84073511 244.06343152 -71.00250244 251.26968384 C-72.59590375 254.03368864 -74.1741963 256.80627883 -75.75390625 259.578125 C-83.1059794 272.4595539 -90.48204729 285.32635803 -97.90307617 298.16821289 C-101.07869919 303.66443444 -104.24082341 309.16755896 -107.375 314.6875 C-109.87764277 319.07913113 -112.44669227 323.4251583 -115.0625 327.75 C-124.81684867 343.90229178 -134.33932761 360.23205281 -143 377 C-144.32 377 -145.64 377 -147 377 C-146.40860398 372.33195834 -145.53480987 367.92161602 -144.2578125 363.39453125 C-143.91363281 362.16283203 -143.56945312 360.93113281 -143.21484375 359.66210938 C-142.85182724 358.37883133 -142.48854494 357.09562844 -142.125 355.8125 C-139.61905308 346.90399639 -137.18493272 337.99328324 -135 329 C-134.01 330.485 -134.01 330.485 -133 332 C-132.69932617 331.49364014 -132.39865234 330.98728027 -132.08886719 330.46557617 C-126.52643337 321.11181605 -120.91749991 311.79903893 -115.0625 302.625 C-109.02531255 293.14575593 -103.31561329 283.48649927 -97.63671875 273.78955078 C-95.49271291 270.1354024 -93.33334113 266.49045716 -91.17382812 262.84545898 C-83.72255739 250.26523022 -76.35681801 237.63561912 -69 225 C-66.50079355 220.70787049 -64.00064117 216.41629375 -61.5 212.125 C-60.93676025 211.1570752 -60.37352051 210.18915039 -59.79321289 209.19189453 C-57.18552927 204.71702388 -54.55519655 200.26070173 -51.86328125 195.8359375 C-49.24731951 191.48977401 -46.90952619 187.05800244 -44.6875 182.5 C-44.34138672 181.79875 -43.99527344 181.0975 -43.63867188 180.375 C-42.75572146 178.58500306 -41.87749142 176.79267936 -41 175 C-40.67 174.34 -40.34 173.68 -40 173 C-39.34 173 -38.68 173 -38 173 C-38 171.68 -38 170.36 -38 169 C-37.34 169 -36.68 169 -36 169 C-35.74476563 167.83855469 -35.48953125 166.67710937 -35.2265625 165.48046875 C-34.13060472 161.10719416 -32.39639953 157.32404281 -30.375 153.3125 C-26.29636728 144.95899223 -22.98852472 136.3913938 -19.76171875 127.6796875 C-18.71478838 124.85405246 -17.6227687 122.07094437 -16.41015625 119.3125 C-11.45132677 107.66405846 -9.02373354 95.08076153 -6.375 82.75 C-6.22897339 82.07986877 -6.08294678 81.40973755 -5.93249512 80.71929932 C-1.61376929 60.79247215 0.45131159 41.59058846 0.1875 21.1875 C0.17239539 19.11524432 0.1587174 17.04297774 0.14648438 14.97070312 C0.1140065 9.98019039 0.06255824 4.99022252 0 0 Z " fill="#DEE1E5" transform="translate(783,234)"/>
<path d="M0 0 C16.17 0 32.34 0 49 0 C47.3655908 19.61291046 47.3655908 19.61291046 43.41503906 23.59936523 C40.11292416 25.5144717 37.06379227 25.46769188 33.34765625 25.46875 C32.61050888 25.47636353 31.87336151 25.48397705 31.11387634 25.49182129 C29.55812967 25.50260401 28.00231072 25.5054828 26.4465332 25.50097656 C24.0731469 25.50000436 21.70299765 25.54163447 19.33007812 25.5859375 C17.81511088 25.59114519 16.30013244 25.59383268 14.78515625 25.59375 C13.72712547 25.6183429 13.72712547 25.6183429 12.64772034 25.64343262 C8.73273888 25.58884824 7.13560602 25.11148271 4.07128906 22.59228516 C-1.18859511 16.00937024 0 8.21510408 0 0 Z " fill="#A7ADB7" transform="translate(601,619)"/>
<path d="M0 0 C2.97322126 1.33120557 3.85415296 2.34592603 6 5 C6.625 8.5625 6.625 8.5625 6 12 C4.13291495 14.36497439 2.67938569 15.66030715 0 17 C-4.77108052 17.51510781 -8.75729198 17.59649985 -13.125 15.5 C-15.27221949 12.63704067 -15.73637851 10.55218754 -15.46875 6.97265625 C-13.62426509 -0.78955107 -6.64724987 -1.30400595 0 0 Z " fill="#9DA4AF" transform="translate(630,831)"/>
<path d="M0 0 C22.35841116 -0.17619989 44.70767798 0.13722438 67.0625 0.5 C68.16807755 0.51793673 68.16807755 0.51793673 69.29598999 0.53623581 C78.53073438 0.68646406 87.76539884 0.84119542 97 1 C97 1.33 97 1.66 97 2 C72.25 2.33 47.5 2.66 22 3 C22 2.67 22 2.34 22 2 C14.74 1.67 7.48 1.34 0 1 C0 0.67 0 0.34 0 0 Z " fill="#5E6A7B" transform="translate(562,1132)"/>
<path d="M0 0 C0 0.66 0 1.32 0 2 C3.96 2 7.92 2 12 2 C12 2.33 12 2.66 12 3 C-10.02141462 3.15258415 -31.9913657 2.74250754 -54 2 C-54 1.67 -54 1.34 -54 1 C-47.43467443 0.85652461 -40.86932393 0.7142344 -34.30395508 0.57275391 C-32.07217838 0.52452202 -29.84040744 0.47602247 -27.60864258 0.42724609 C-24.39405791 0.35703676 -21.17945348 0.28780155 -17.96484375 0.21875 C-16.97290512 0.19687622 -15.98096649 0.17500244 -14.95896912 0.15246582 C-9.97121857 0.04628381 -4.98887479 -0.02423254 0 0 Z " fill="#929BA7" transform="translate(606,975)"/>
<path d="M0 0 C19.02363914 -0.16892576 37.99192807 0.31324733 57 1 C57 1.33 57 1.66 57 2 C51.64333324 2.16762152 46.28651915 2.32818051 40.92944336 2.48217773 C39.10679417 2.53557027 37.28420059 2.5908975 35.46166992 2.64819336 C32.84305818 2.73018093 30.22432573 2.80522482 27.60546875 2.87890625 C26.78974899 2.90594131 25.97402924 2.93297638 25.1335907 2.96083069 C21.80145255 3.04887557 19.18862422 3.06287474 16 2 C13.26710707 1.77202438 10.54957796 1.58331813 7.8125 1.4375 C7.06291016 1.39431641 6.31332031 1.35113281 5.54101562 1.30664062 C3.69421625 1.20077315 1.84713166 1.0999024 0 1 C0 0.67 0 0.34 0 0 Z " fill="#636E7F" transform="translate(583,940)"/>
<path d="M0 0 C7.08076251 -0.40850553 13.19925959 1.09579269 20 3 C20 3.66 20 4.32 20 5 C19.01 5 18.02 5 17 5 C17 5.66 17 6.32 17 7 C11.14340094 5.33846988 5.5409866 3.52958084 0 1 C0 0.67 0 0.34 0 0 Z " fill="#B2B6BF" transform="translate(665,85)"/>
<path d="M0 0 C0.66 0.33 1.32 0.66 2 1 C1.54901762 2.93922422 1.08894441 4.87633594 0.625 6.8125 C0.36976563 7.89144531 0.11453125 8.97039062 -0.1484375 10.08203125 C-1 13 -1 13 -3 16 C-3 15.34 -3 14.68 -3 14 C-3.66 14 -4.32 14 -5 14 C-4.68817931 12.58318366 -4.37551263 11.16655349 -4.0625 9.75 C-3.88847656 8.96109375 -3.71445312 8.1721875 -3.53515625 7.359375 C-3.35855469 6.58078125 -3.18195312 5.8021875 -3 5 C-2.85433594 4.26265625 -2.70867188 3.5253125 -2.55859375 2.765625 C-2.28208984 1.89164062 -2.28208984 1.89164062 -2 1 C-1.34 0.67 -0.68 0.34 0 0 Z " fill="#D7DADF" transform="translate(771,345)"/>
<path d="M0 0 C-2.62301226 1.74867484 -5.20651868 3.23671878 -8 4.6875 C-9.299375 5.37392578 -9.299375 5.37392578 -10.625 6.07421875 C-13 7 -13 7 -16 6 C-15.67 5.34 -15.34 4.68 -15 4 C-15.66 3.67 -16.32 3.34 -17 3 C-15.10614563 2.49255577 -13.20981334 1.99435426 -11.3125 1.5 C-9.72888672 1.08234375 -9.72888672 1.08234375 -8.11328125 0.65625 C-5.28857328 0.0608285 -2.87163292 -0.12786492 0 0 Z " fill="#9BA0AA" transform="translate(583,85)"/>
<path d="M0 0 C0.66 0.33 1.32 0.66 2 1 C-0.17116113 3.27971919 -2.33806422 5.30604087 -5 7 C-6.32 7 -7.64 7 -9 7 C-9 7.66 -9 8.32 -9 9 C-11.5614657 11.29648649 -12.47967572 12 -16 12 C-14.89280571 8.67841714 -14.52974601 8.41279673 -11.69140625 6.703125 C-11.02689453 6.30222656 -10.36238281 5.90132813 -9.67773438 5.48828125 C-8.63069336 4.87533203 -8.63069336 4.87533203 -7.5625 4.25 C-6.86833984 3.82589844 -6.17417969 3.40179688 -5.45898438 2.96484375 C-3.67896541 1.90682667 -1.84238567 0.94524214 0 0 Z " fill="#405063" transform="translate(501,104)"/>
<path d="M0 0 C0.66 0.33 1.32 0.66 2 1 C0.58791833 2.60820412 -0.82986036 4.21140708 -2.25 5.8125 C-3.03890625 6.70582031 -3.8278125 7.59914062 -4.640625 8.51953125 C-6.65879445 10.64128225 -8.59916705 12.34254423 -11 14 C-11.66 13.67 -12.32 13.34 -13 13 C-8.71 8.71 -4.42 4.42 0 0 Z " fill="#3E4C60" transform="translate(461,132)"/>
<path d="M0 0 C0.58203125 1.859375 0.58203125 1.859375 1 4 C-0.3125 6.25 -0.3125 6.25 -2 8 C-2.66 8 -3.32 8 -4 8 C-4.66 9.32 -5.32 10.64 -6 12 C-6.66 12 -7.32 12 -8 12 C-6.59023295 8.96147295 -4.91129772 6.4060405 -2.875 3.75 C-2.06675781 2.69039062 -2.06675781 2.69039062 -1.2421875 1.609375 C-0.83226562 1.07828125 -0.42234375 0.5471875 0 0 Z " fill="#415166" transform="translate(595,867)"/>
<path d="M0 0 C0.66 0.99 1.32 1.98 2 3 C-0.31 5.97 -2.62 8.94 -5 12 C-5.33 11.01 -5.66 10.02 -6 9 C-4.78515625 6.73828125 -4.78515625 6.73828125 -3.0625 4.3125 C-2.49660156 3.50425781 -1.93070313 2.69601562 -1.34765625 1.86328125 C-0.90292969 1.24839844 -0.45820312 0.63351562 0 0 Z " fill="#37475D" transform="translate(790,441)"/>
<path d="M0 0 C0.66 0.66 1.32 1.32 2 2 C0.8125 4 0.8125 4 -1 6 C-3.6875 6.25 -3.6875 6.25 -6 6 C-4.95125002 3.37812506 -4.35068687 2.20628639 -1.875 0.75 C-1.25625 0.5025 -0.6375 0.255 0 0 Z " fill="#CAD0D6" transform="translate(653,605)"/>
<path d="M0 0 C0.99 0.33 1.98 0.66 3 1 C0.69 3.64 -1.62 6.28 -4 9 C-4.66 8.67 -5.32 8.34 -6 8 C-4.02 5.36 -2.04 2.72 0 0 Z " fill="#38485E" transform="translate(770,469)"/>
<path d="M0 0 C0.66 0.99 1.32 1.98 2 3 C0.35 4.65 -1.3 6.3 -3 8 C-3.99 7.67 -4.98 7.34 -6 7 C-4.02 4.69 -2.04 2.38 0 0 Z " fill="#3C4B60" transform="translate(747,497)"/>
<path d="M0 0 C0.66 0.33 1.32 0.66 2 1 C2 2.98 2 4.96 2 7 C0.35 7 -1.3 7 -3 7 C-3 6.01 -3 5.02 -3 4 C-2.01 4 -1.02 4 0 4 C0 2.68 0 1.36 0 0 Z " fill="#C7CDD3" transform="translate(693,1127)"/>
<path d="M0 0 C0.66 0.99 1.32 1.98 2 3 C0.68 4.65 -0.64 6.3 -2 8 C-2.99 7.67 -3.98 7.34 -5 7 C-3.35 4.69 -1.7 2.38 0 0 Z " fill="#415066" transform="translate(530,949)"/>
<path d="M0 0 C1.27875 0.103125 2.5575 0.20625 3.875 0.3125 C4.95394531 0.39951172 4.95394531 0.39951172 6.0546875 0.48828125 C8 1 8 1 10 4 C5.78087253 3.5205537 3.20336822 2.83374881 0 0 Z " fill="#D7DBE2" transform="translate(697,93)"/>
<path d="M0 0 C0.66 0.33 1.32 0.66 2 1 C-1.32307692 4.93846154 -1.32307692 4.93846154 -4.75 5.25 C-5.4925 5.1675 -6.235 5.085 -7 5 C-4.702779 3.25728062 -2.40133271 1.60088848 0 0 Z " fill="#455367" transform="translate(520,959)"/>
<path d="M0 0 C4.28359673 1.8855148 6.15103592 4.35965701 9 8 C8.01 8 7.02 8 6 8 C4.39453125 6.25 4.39453125 6.25 2.8125 4 C2.28269531 3.2575 1.75289062 2.515 1.20703125 1.75 C0.80871094 1.1725 0.41039062 0.595 0 0 Z " fill="#3A475C" transform="translate(707,925)"/>
<path d="M0 0 C0.99 0.33 1.98 0.66 3 1 C0.03 3.475 0.03 3.475 -3 6 C-3.66 5.67 -4.32 5.34 -5 5 C-3.35 3.35 -1.7 1.7 0 0 Z " fill="#3B4C62" transform="translate(728,520)"/>
<path d="" fill="#535353" transform="translate(0,0)"/>
</svg>
