<?xml version="1.0" encoding="UTF-8"?>
<svg version="1.1" xmlns="http://www.w3.org/2000/svg" width="1254" height="1254">
<path d="M0 0 C0.67864105 0.00027191 1.3572821 0.00054382 2.05648804 0.00082397 C13.83816519 0.02242144 25.44182938 0.61878783 37.125 2.1875 C37.84236328 2.27870117 38.55972656 2.36990234 39.29882812 2.46386719 C69.0302376 6.36149906 97.84418772 15.98231691 125.125 28.1875 C125.89231445 28.52861816 126.65962891 28.86973633 127.45019531 29.22119141 C152.76407213 40.56751573 176.24098289 55.19439497 198.125 72.1875 C199.02605469 72.88488281 199.92710937 73.58226562 200.85546875 74.30078125 C208.13397577 80.03572235 215.13425033 86.10795981 222.125 92.1875 C223.07246094 93.00863281 224.01992188 93.82976562 224.99609375 94.67578125 C229.4796192 98.62701601 233.57192236 102.66480505 237.421875 107.234375 C239.19295457 109.26542955 241.06461054 111.12556768 243 113 C246.91402596 116.86133715 250.35506772 121.00731155 253.7890625 125.296875 C255.31599992 127.18639622 256.87250119 129.05250138 258.4609375 130.890625 C271.19466259 145.64361394 281.47156866 162.30671937 291.125 179.1875 C291.55377441 179.93370605 291.98254883 180.67991211 292.42431641 181.44873047 C313.19771632 218.02709716 326.62370218 260.44105999 331.125 302.1875 C331.2192627 303.05157471 331.31352539 303.91564941 331.41064453 304.8059082 C332.22623461 313.26455489 332.34453945 321.70801766 332.36523438 330.19897461 C332.37508191 332.64534777 332.40627941 335.09092709 332.4375 337.53710938 C332.44401953 339.10676593 332.4492741 340.67642837 332.453125 342.24609375 C332.4654718 342.97009872 332.4778186 343.6941037 332.49053955 344.44004822 C332.45982645 351.41588914 329.55923163 354.93174706 325 359.875 C323.80503906 361.18210937 323.80503906 361.18210937 322.5859375 362.515625 C321.77382813 363.39734375 320.96171875 364.2790625 320.125 365.1875 C315.4570869 370.28851844 310.89651776 375.42285527 306.5625 380.8125 C303.888538 384.12135419 301.17776743 387.22540883 298.125 390.1875 C294.24819577 393.94960588 290.93016809 398.04572333 287.55078125 402.25390625 C284.07748091 406.4543065 280.37783361 410.42787612 276.67578125 414.42578125 C272.48519455 418.96290957 268.45038522 423.62454851 264.453125 428.33203125 C259.38849325 434.28673442 254.2777761 440.16501248 248.9375 445.875 C244.50295776 450.61813152 240.33751283 455.50939844 236.26953125 460.57421875 C233.41807286 464.04894673 230.39114732 467.34725208 227.36328125 470.66796875 C225.09652842 473.21954917 222.94959913 475.83921532 220.8125 478.5 C216.92308842 483.3125529 212.7975675 487.8334852 208.5715332 492.34643555 C204.62709561 496.58244858 200.96019299 500.99384808 197.3359375 505.5078125 C195.0156505 508.32003315 192.59428866 511.00547263 190.125 513.6875 C186.85081577 517.24420244 183.71857567 520.85911811 180.6875 524.625 C177.02993736 529.15986161 173.17882973 533.44286183 169.21337891 537.70458984 C165.4142159 541.81182899 161.88870654 546.10351102 158.37890625 550.4609375 C155.19787251 554.30905111 151.82940386 557.97181482 148.453125 561.6484375 C142.79636183 567.8177262 137.38928807 574.2056675 131.94750977 580.56396484 C127.12862404 586.19156787 122.27901808 591.79213023 117.421875 597.38671875 C115.1984838 599.94784863 112.98013826 602.51322159 110.765625 605.08203125 C105.86513204 610.76144844 100.95122774 616.41406208 95.875 621.9375 C92.68783417 625.41207531 89.64623303 628.95407637 86.6875 632.625 C83.02928985 637.16066443 79.17757035 641.4445117 75.21118164 645.70678711 C72.22073 648.93943975 69.38720993 652.25446766 66.625 655.6875 C62.99300391 660.20155228 59.1656487 664.46014275 55.21972656 668.69604492 C52.134221 672.02893225 49.22335139 675.45893731 46.375 679 C43.36793605 682.73475202 40.25933801 686.16885128 36.8203125 689.50390625 C29.94009411 696.14585508 29.94009411 696.14585508 25.125 704.1875 C25.70309297 706.54434056 26.38113932 708.87761685 27.125 711.1875 C27.89098785 718.84737849 25.54138888 725.35472224 22.125 732.1875 C22.94133911 732.41554321 22.94133911 732.41554321 23.77416992 732.64819336 C31.07860538 734.7586947 38.19293413 737.33794413 45.32177734 739.96975708 C61.51180466 745.94036677 77.78172989 751.6490879 94.125 757.1875 C95.50132276 757.65537539 96.87762424 758.12331337 98.25390625 758.59130859 C102.54166455 760.04781558 106.83219867 761.49592602 111.125 762.9375 C111.82208069 763.17163605 112.51916138 763.40577209 113.23736572 763.64700317 C122.76981959 766.83893556 132.33525738 769.84195363 142.07421875 772.35058594 C148.87423209 774.15916091 148.87423209 774.15916091 151.125 777.1875 C151.54888058 779.53715038 151.54888058 779.53715038 151.61790466 782.34672546 C151.66699651 783.92979728 151.66699651 783.92979728 151.71708012 785.54485035 C151.73753108 786.69367034 151.75798204 787.84249033 151.77905273 789.02612305 C151.81149047 790.22933795 151.8439282 791.43255285 151.8773489 792.67222881 C151.97587331 796.51047045 152.05241981 800.34868708 152.125 804.1875 C152.17663027 806.57565606 152.22839552 808.9638092 152.28030396 811.35195923 C152.43325476 818.82411101 152.54816512 826.29667141 152.66015625 833.76953125 C152.70310878 836.5288718 152.74679288 839.2882007 152.79039001 842.04753113 C152.88060342 847.78629612 152.96850453 853.52509283 153.05493164 859.26391602 C153.15348428 865.80601897 153.25575233 872.34805576 153.36003023 878.89006978 C153.46207531 885.29775516 153.56139279 891.70548029 153.65957451 898.11322594 C153.70059236 900.78742648 153.74261995 903.46160503 153.78517342 906.13578224 C153.88326374 912.34044743 153.96999965 918.54475994 154.03079224 924.74990845 C154.07676864 929.2961175 154.16472949 933.83758955 154.30127889 938.38171726 C154.37907528 941.13296799 154.43219852 943.8843941 154.48116195 946.63629282 C154.5239269 948.56867107 154.59796107 950.50027802 154.67290592 952.43167591 C154.81545763 962.16817044 154.81545763 962.16817044 151.23371887 966.41912842 C149.63238239 967.95168686 149.63238239 967.95168686 148.125 969.1875 C147.41891602 969.80052979 146.71283203 970.41355957 145.98535156 971.04516602 C145.3353418 971.50592529 144.68533203 971.96668457 144.015625 972.44140625 C143.26998291 972.97870361 142.52434082 973.51600098 141.75610352 974.06958008 C140.97033936 974.62411865 140.1845752 975.17865723 139.375 975.75 C137.67946625 976.97184721 135.98549496 978.19586508 134.29296875 979.421875 C133.43493652 980.04255859 132.5769043 980.66324219 131.69287109 981.30273438 C127.62711321 984.28691871 123.65558042 987.38773022 119.6875 990.5 C113.48816853 995.35170827 107.25089217 1000.13912662 100.93359375 1004.83691406 C98.66936522 1006.52774995 96.41290786 1008.22876115 94.15625 1009.9296875 C93.26663574 1010.59943604 92.37702148 1011.26918457 91.46044922 1011.95922852 C89.69040793 1013.2919411 87.92116586 1014.62571602 86.15283203 1015.96069336 C85.33153809 1016.57823486 84.51024414 1017.19577637 83.6640625 1017.83203125 C82.93396973 1018.38221924 82.20387695 1018.93240723 81.45166016 1019.49926758 C80.6838623 1020.05638428 79.91606445 1020.61350098 79.125 1021.1875 C78.2500589 1021.87696213 77.3751178 1022.56642426 76.47366333 1023.27677917 C72.52988882 1025.52706574 69.61284113 1025.65551036 65.21972656 1025.44726562 C64.41684456 1025.42631332 63.61396255 1025.40536102 62.78675079 1025.3837738 C60.02874452 1025.30677574 57.27265661 1025.19981229 54.515625 1025.09375 C52.47411859 1025.03082691 50.43254945 1024.96991454 48.39093018 1024.9107666 C43.68719484 1024.77089549 38.98408542 1024.61790589 34.28100586 1024.45751953 C26.05202908 1024.18000523 17.82214071 1023.94156988 9.59180927 1023.70817947 C-10.16663113 1023.1477794 -29.92385275 1022.55030935 -49.68096399 1021.94510841 C-57.25819879 1021.71328847 -64.83555442 1021.48561784 -72.41294026 1021.25879622 C-79.81874303 1021.03695718 -87.22446467 1020.81253977 -94.63012767 1020.58608294 C-99.01217709 1020.45211422 -103.39424974 1020.31909824 -107.77640533 1020.18864441 C-111.86462087 1020.06683875 -115.95272508 1019.94179561 -120.04076767 1019.81432152 C-121.52937992 1019.76843228 -123.01802693 1019.72365366 -124.50671005 1019.68012428 C-131.06107401 1019.48788733 -137.61618737 1019.26872635 -144.15985107 1018.84020996 C-145.0056007 1018.78722496 -145.85135033 1018.73423996 -146.72272873 1018.67964935 C-149.46244173 1018.05317257 -150.33930124 1017.55883374 -151.875 1015.1875 C-152.2082795 1012.70560726 -152.35967768 1010.46261259 -152.3808136 1007.97523499 C-152.39834997 1007.24469859 -152.41588634 1006.51416219 -152.43395412 1005.76148832 C-152.48800516 1003.33331071 -152.52036244 1000.90537223 -152.55200195 998.47680664 C-152.5844523 996.7578541 -152.61781788 995.03891861 -152.65205097 993.32000065 C-152.75214961 987.94273507 -152.81902708 982.56538912 -152.875 977.1875 C-152.88365066 976.35894044 -152.89230132 975.53038089 -152.90121412 974.67671347 C-153.01490111 963.17819717 -153.04049291 951.67989676 -153.04225707 940.18088794 C-153.04298207 937.50953206 -153.04514187 934.83818092 -153.04775429 932.16682625 C-153.05688168 922.81116547 -153.06110251 913.4555186 -153.06030273 904.09985352 C-153.05969479 895.42179795 -153.07041696 886.74380307 -153.0860464 878.06576294 C-153.09910343 870.54480814 -153.1044879 863.02387339 -153.10384732 855.50290734 C-153.10359321 851.03924854 -153.10640118 846.57564492 -153.11702538 842.1119976 C-153.12668325 837.94600615 -153.12680167 833.78012333 -153.11950874 829.61412811 C-153.11846234 828.08910272 -153.1208291 826.56407057 -153.1268692 825.03905678 C-153.13457937 822.95827741 -153.12995236 820.87787504 -153.12223816 818.79710388 C-153.12278293 817.63430121 -153.12332769 816.47149855 -153.12388897 815.27345943 C-152.87134971 812.14224029 -152.30156484 809.97461751 -150.875 807.1875 C-148.6862793 805.52514648 -148.6862793 805.52514648 -145.94921875 804.05859375 C-144.93601562 803.50494141 -143.9228125 802.95128906 -142.87890625 802.38085938 C-141.78449219 801.80142578 -140.69007813 801.22199219 -139.5625 800.625 C-137.26381517 799.37463091 -134.96564536 798.12331458 -132.66796875 796.87109375 C-130.94199463 795.93885986 -130.94199463 795.93885986 -129.18115234 794.98779297 C-124.53733224 792.45910227 -119.95458469 789.8301866 -115.375 787.1875 C-106.53777215 782.11370638 -97.65324131 777.12689232 -88.75 772.16992188 C-83.66883357 769.33555243 -78.61915872 766.46015338 -73.60546875 763.5078125 C-69.22152366 760.93985441 -64.82461976 758.58257794 -60.25 756.375 C-46.45845088 749.61199809 -33.18270712 741.84691986 -19.875 734.1875 C-20.95507732 730.86274024 -22.09817572 727.63762411 -23.5 724.4375 C-25.82614572 718.21862062 -25.82490146 712.02285794 -23.3125 705.875 C-21.76050541 701.89379648 -21.44985572 701.07171677 -22.875 697.1875 C-24.85197551 694.62546582 -27.10071074 692.36026579 -29.375 690.0625 C-30.666686 688.72127166 -31.95574672 687.37751012 -33.2421875 686.03125 C-33.86963867 685.37511719 -34.49708984 684.71898437 -35.14355469 684.04296875 C-37.38406767 681.64196781 -39.45354271 679.13001099 -41.5 676.5625 C-44.79697476 672.43208924 -48.26489411 668.54124996 -51.875 664.6875 C-56.33054941 659.93011629 -60.50633979 655.02931199 -64.58984375 649.9453125 C-68.01965502 645.80608727 -71.67640192 641.88807324 -75.328125 637.9453125 C-79.06773181 633.89598366 -82.67363341 629.74025483 -86.27294922 625.56640625 C-92.66317906 618.15859852 -99.08654686 610.79982159 -105.69140625 603.58203125 C-109.83976772 599.03293361 -113.85410517 594.36914584 -117.87890625 589.7109375 C-123.49982909 583.20898191 -129.14236542 576.73601217 -134.91015625 570.36328125 C-138.88725466 565.959218 -142.7755365 561.48066086 -146.625 556.96484375 C-151.36579323 551.40627521 -156.11586217 545.87812026 -161.0625 540.5 C-164.25236844 537.02613691 -167.29548894 533.48839975 -170.25 529.8125 C-174.11354 525.02061823 -178.21576827 520.52423765 -182.42211914 516.03710938 C-186.4429356 511.72252583 -190.16204709 507.21175758 -193.85546875 502.61328125 C-196.15818558 499.84734865 -198.62376937 497.34815917 -201.20703125 494.84765625 C-203.58053856 492.48526607 -205.7396571 489.95679648 -207.92578125 487.421875 C-210.20520694 484.80898624 -212.53712353 482.24819979 -214.875 479.6875 C-218.32828153 475.90087002 -221.73599051 472.0827368 -225.09765625 468.21484375 C-227.92932947 464.98486924 -230.81702507 461.80559344 -233.6953125 458.6171875 C-235.56645094 456.5314382 -237.41424831 454.42932372 -239.25 452.3125 C-242.12701737 449.00558349 -245.0869451 445.78044561 -248.0625 442.5625 C-252.06350332 438.23083524 -255.93778404 433.81088975 -259.75 429.3125 C-264.47653009 423.73968122 -269.37088801 418.35292059 -274.36621094 413.02050781 C-277.67502441 409.48750371 -280.90821016 405.90770911 -284.0703125 402.2421875 C-286.46281737 399.51825338 -288.91904204 396.8540509 -291.375 394.1875 C-294.39428633 390.90896923 -297.39702194 387.62168978 -300.3125 384.25 C-303.42464552 380.65790914 -306.64381462 377.17207287 -309.875 373.6875 C-314.29133191 368.92270732 -318.63419456 364.10986346 -322.875 359.1875 C-323.4421875 358.54941406 -324.009375 357.91132813 -324.59375 357.25390625 C-325.1403125 356.63386719 -325.686875 356.01382812 -326.25 355.375 C-326.73210937 354.83230469 -327.21421875 354.28960937 -327.7109375 353.73046875 C-330.56229604 349.95098344 -330.05273554 345.52387944 -330.078125 341.0234375 C-330.08518463 340.20765228 -330.09224426 339.39186707 -330.09951782 338.55136108 C-330.63938635 257.49340967 -301.74917744 179.33685761 -246.875 119.1875 C-246.25367188 118.50445801 -245.63234375 117.82141602 -244.9921875 117.11767578 C-233.65388842 104.71499952 -221.90672765 92.61200641 -208.58984375 82.30859375 C-206.40558762 80.60204543 -204.26266045 78.8659579 -202.12890625 77.09765625 C-194.31519466 70.63087792 -186.46551097 64.60613 -177.875 59.1875 C-176.43044476 58.25474949 -174.98647925 57.32108528 -173.54296875 56.38671875 C-162.8921078 49.5312329 -152.05934475 43.1324949 -140.875 37.1875 C-140.23062988 36.84267578 -139.58625977 36.49785156 -138.92236328 36.14257812 C-96.52513913 13.6331075 -48.11544059 -0.03269722 0 0 Z M-62.875 355.1875 C-63.679375 355.89648438 -64.48375 356.60546875 -65.3125 357.3359375 C-69.16383918 364.36463151 -65.1882416 375.14801492 -63.46875 382.59765625 C-63.10825562 384.19986526 -63.10825562 384.19986526 -62.74047852 385.83444214 C-62.22557157 388.11995007 -61.70758746 390.40476658 -61.18676758 392.68893433 C-59.797899 398.78162925 -58.43219706 404.87953478 -57.0625 410.9765625 C-56.78724487 412.19868942 -56.51198975 413.42081635 -56.22839355 414.67997742 C-53.87381783 425.14704656 -51.60410241 435.63060033 -49.375 446.125 C-46.20216569 461.03741249 -42.97269108 475.93670574 -39.71316528 490.83041382 C-35.32668814 510.87545979 -30.98219901 530.92843739 -26.73242188 551.00292969 C-26.32162494 552.94336157 -25.91081751 554.88379123 -25.5 556.82421875 C-25.29306519 557.80186188 -25.08613037 558.779505 -24.8729248 559.78677368 C-23.18214501 567.76384577 -21.46768667 575.73571572 -19.75 583.70703125 C-18.64441721 588.84605065 -17.54043202 593.98541107 -16.4375 599.125 C-16.1645813 600.39617676 -15.8916626 601.66735352 -15.61047363 602.97705078 C-12.51249754 617.43519006 -9.49963194 631.90481045 -6.671875 646.41796875 C-6.54407591 647.07324743 -6.41627682 647.72852612 -6.28460503 648.40366173 C-4.94001662 655.30364882 -3.61146942 662.20648761 -2.30102539 669.11303711 C-2.08395935 670.24377151 -1.86689331 671.37450592 -1.64324951 672.539505 C-1.23863842 674.64751932 -0.83950077 676.7565944 -0.44683838 678.86686707 C-0.26820251 679.79332535 -0.08956665 680.71978363 0.09448242 681.67431641 C0.24624435 682.47850006 0.39800629 683.28268372 0.55436707 684.11123657 C1.08518296 686.4683373 1.08518296 686.4683373 3.125 689.1875 C8.37917996 664.30278363 13.52484206 639.39743605 18.5786438 614.47125244 C21.40586773 600.52839896 24.24104688 586.58750675 27.125 572.65625 C35.10497942 534.09555115 42.92605602 495.50349707 50.70405626 456.9016242 C51.12268986 454.8239651 51.54135252 452.74631186 51.96001816 450.66865921 C52.77969874 446.60082619 53.59924801 442.53296673 54.41870117 438.46508789 C54.55139865 437.80636385 54.68409612 437.14763982 54.82081473 436.46895444 C56.23890712 429.42894135 57.65585574 422.38869996 59.07026672 415.34794617 C59.55074748 412.95624731 60.0312314 410.56454909 60.51171875 408.17285156 C60.85437413 406.46706924 60.85437413 406.46706924 61.20395184 404.72682667 C62.3713051 398.92010481 63.54442816 393.11464239 64.72987366 387.31158638 C65.18333913 385.09157447 65.63507554 382.87121869 66.08618164 380.65072632 C66.58790426 378.1846028 67.09320038 375.71920158 67.60327148 373.25479126 C67.81153564 372.22759979 68.0197998 371.20040833 68.234375 370.14208984 C68.49686035 368.86535904 68.49686035 368.86535904 68.76464844 367.56283569 C69.56764349 362.38659981 69.56764349 362.38659981 67.47265625 357.79296875 C65.04979823 355.22929505 62.61358097 352.68758443 60.125 350.1875 C59.46371094 349.49140625 58.80242187 348.7953125 58.12109375 348.078125 C43.56461893 333.83499895 22.90859586 327.79418155 3 327.625 C-22.37018551 327.92212649 -44.48529012 337.8705232 -62.875 355.1875 Z M-178.875 339.1875 C-179.78765625 339.60644531 -180.7003125 340.02539062 -181.640625 340.45703125 C-189.61213373 344.40862201 -195.5927156 350.01185932 -201.875 356.1875 C-202.5040625 356.70957031 -203.133125 357.23164063 -203.78125 357.76953125 C-204.32265625 358.47142578 -204.32265625 358.47142578 -204.875 359.1875 C-204.38489865 362.38280646 -203.10026512 364.75599341 -201.43359375 367.49609375 C-200.93666016 368.31859619 -200.43972656 369.14109863 -199.92773438 369.98852539 C-199.39470703 370.85856201 -198.86167969 371.72859863 -198.3125 372.625 C-197.76529297 373.52661865 -197.21808594 374.4282373 -196.65429688 375.35717773 C-195.06628578 377.97042862 -193.47141439 380.57937698 -191.875 383.1875 C-191.15728042 384.36702224 -190.43978933 385.54668358 -189.72265625 386.7265625 C-186.91500489 391.32090109 -184.06964958 395.88922116 -181.17578125 400.4296875 C-175.23036949 409.76499234 -169.46574689 419.18040688 -163.86352539 428.72583008 C-158.27524134 438.23887442 -152.53020468 447.65335012 -146.77880859 457.06835938 C-130.18411898 484.25658129 -113.80848195 511.57366037 -97.56278992 538.97164917 C-94.69021087 543.81540696 -91.81296023 548.65636821 -88.93359375 553.49609375 C-80.6986218 567.34047165 -72.50216329 581.20484111 -64.40234375 595.12890625 C-50.79659184 618.51682502 -37.12410014 641.87052319 -23.1340332 665.03076172 C-19.49285024 671.08574886 -15.99943189 677.21345208 -12.63964844 683.42919922 C-10.88814729 686.91049105 -10.88814729 686.91049105 -7.875 689.1875 C-9.97088016 677.00513531 -12.25830098 664.87012489 -14.6875 652.75 C-14.87452484 651.81508728 -15.06154968 650.88017456 -15.25424194 649.91693115 C-24.15637991 605.50335888 -33.81214349 561.23800604 -43.51116943 516.99302673 C-45.49491657 507.93781054 -47.46469829 498.87961275 -49.4296875 489.8203125 C-53.06901782 473.04248234 -56.71659232 456.26646508 -60.37271881 439.49228668 C-60.88461229 437.1433927 -61.3962724 434.79444796 -61.90789795 432.44549561 C-63.8095393 423.71625843 -65.71511936 414.98790129 -67.62931156 406.2614069 C-68.45398023 402.50174658 -69.27713213 398.74177216 -70.09609985 394.98086548 C-70.85941621 391.47597689 -71.62745679 387.97215639 -72.39908028 384.4690876 C-72.81299612 382.58450757 -73.22213333 380.69887994 -73.63108826 378.81321716 C-76.39235369 364.95237275 -76.39235369 364.95237275 -84.75 354.125 C-85.32443848 353.6182373 -85.89887695 353.11147461 -86.49072266 352.58935547 C-104.2596399 337.32078218 -126.40793532 329.73345762 -149.79052734 331.01904297 C-160.11003492 331.85301582 -169.57482826 334.70440616 -178.875 339.1875 Z M84.125 357.1875 C83.45626358 357.70333145 82.78752716 358.2191629 82.098526 358.75062561 C79.13281106 362.41263705 78.61109391 366.32124115 77.69311523 370.87670898 C77.38123213 372.33472128 77.38123213 372.33472128 77.06304836 373.82218838 C76.40095278 376.94083596 75.76140887 380.06351841 75.125 383.1875 C74.71070977 385.18189942 74.29601055 387.17621393 73.88088989 389.17044067 C72.57339795 395.49525181 71.30350191 401.82740048 70.03515625 408.16015625 C69.56369228 410.50309931 69.09196075 412.84598854 68.61997986 415.18882751 C67.3886443 421.3040832 66.16041814 427.41995881 64.93304443 433.53601074 C62.97835204 443.27346732 61.01896225 453.00998074 59.05971146 462.746521 C58.58517526 465.10477985 58.11072605 467.46305621 57.63636398 469.8213501 C54.42095911 485.80441005 51.16453155 501.77753137 47.84054565 517.7383728 C46.59219846 523.75575024 45.36021592 529.7764823 44.12765884 535.7971096 C43.67049671 538.03016992 43.21307389 540.2631767 42.75558472 542.49617004 C41.45665429 548.83676973 40.15815651 555.17745743 38.86135864 561.51849365 C34.84361942 581.16276138 30.79716658 600.80048823 26.68382645 620.42498398 C25.4219145 626.44922633 24.16429761 632.47436746 22.90634346 638.49943733 C21.68522532 644.34462383 20.45621984 650.1880852 19.22174358 656.03046417 C18.45540377 659.66617406 17.69627112 663.30336129 16.93908119 666.94098663 C16.584445 668.63695431 16.22672158 670.33227968 15.86574364 672.02690887 C15.37240964 674.34462785 14.88986493 676.66434235 14.40991211 678.98486328 C14.26310375 679.66163305 14.11629539 680.33840282 13.9650383 681.03568077 C13.28605761 684.37721759 12.91235451 686.94886829 14.125 690.1875 C14.47578613 689.58615234 14.82657227 688.98480469 15.18798828 688.36523438 C39.33365885 646.97265625 63.47932943 605.58007812 87.625 564.1875 C88.20233887 563.1977417 88.77967773 562.2079834 89.37451172 561.18823242 C90.54268459 559.18572019 91.71097911 557.18327892 92.87939453 555.1809082 C95.77401175 550.21991636 98.66659098 545.25775989 101.5546875 540.29296875 C108.29913261 528.70463766 115.09745416 517.14998228 121.94384766 505.62158203 C126.9522701 497.18260116 131.92023764 488.72057551 136.875 480.25 C142.13308363 471.26228194 147.42840483 462.29909433 152.80297852 453.38037109 C156.506592 447.23167211 160.16610618 441.05778634 163.8125 434.875 C168.4868581 426.95111744 173.19027826 419.04613229 177.93554688 411.16455078 C179.76431377 408.12486393 181.58880083 405.08261273 183.41357422 402.04052734 C184.42803145 400.3493319 185.44267934 398.65825082 186.45751953 396.96728516 C189.10160068 392.56160491 191.74375643 388.15478615 194.3828125 383.74609375 C194.91543701 382.85688232 195.44806152 381.9676709 195.99682617 381.05151367 C197.00802225 379.36324354 198.01864289 377.67462855 199.02856445 375.9855957 C199.72405396 374.82483521 199.72405396 374.82483521 200.43359375 373.640625 C200.87558105 372.89619141 201.31756836 372.15175781 201.77294922 371.38476562 C202.69306572 369.8894517 203.65529551 368.41942737 204.65283203 366.97460938 C205.12962402 366.27658203 205.60641602 365.57855469 206.09765625 364.859375 C206.534729 364.24674805 206.97180176 363.63412109 207.42211914 363.00292969 C208.36609969 361.15025616 208.36609969 361.15025616 207.38842773 359.10644531 C205.61032494 356.40579063 203.48964437 354.39450141 201.125 352.1875 C200.66609375 351.73503906 200.2071875 351.28257812 199.734375 350.81640625 C190.010768 341.75577246 177.75632732 336.66957349 165.125 333.1875 C164.238125 332.94128906 163.35125 332.69507813 162.4375 332.44140625 C132.83705602 325.73505566 105.43854809 337.04021993 84.125 357.1875 Z M-315.875 349.1875 C-315.306775 352.85660998 -313.93120402 354.43228235 -311.25 356.9375 C-308.56595484 359.52178418 -305.99279608 362.11294282 -303.5625 364.9375 C-300.60562758 368.37259097 -297.56938363 371.72806916 -294.5 375.0625 C-288.44793346 381.64330752 -282.41731018 388.24227933 -276.5625 395 C-272.8919327 399.21815776 -269.08385313 403.3052707 -265.2824707 407.4050293 C-262.00973045 410.940698 -258.80046626 414.52000974 -255.6484375 418.1640625 C-253.42361908 420.70251171 -251.14996681 423.19391776 -248.875 425.6875 C-245.41485272 429.48165849 -242.00020885 433.30717237 -238.6328125 437.18359375 C-236.67496415 439.41554087 -234.68250098 441.61370859 -232.6875 443.8125 C-229.07133284 447.81480026 -225.55474469 451.89018297 -222.0625 456 C-217.55717251 461.29966512 -212.90767437 466.43306326 -208.15600586 471.51196289 C-205.17196844 474.72198258 -202.35409575 478.00412148 -199.625 481.4375 C-195.62200531 486.43393862 -191.29014469 491.05342252 -186.875 495.6875 C-181.68521228 501.13463256 -176.75660519 506.62288277 -172.078125 512.515625 C-169.46059486 515.69007644 -166.68723065 518.68603514 -163.875 521.6875 C-159.43658403 526.42607184 -155.28356937 531.3087034 -151.21875 536.375 C-148.05696559 540.16914129 -144.68954636 543.75033765 -141.31420898 547.35375977 C-138.21719916 550.679048 -135.27878316 554.07469939 -132.4375 557.625 C-128.40988871 562.64672225 -124.08154144 567.31332761 -119.67211914 571.99584961 C-115.65141955 576.28894 -111.92495606 580.75005492 -108.25 585.34375 C-105.41035355 588.74385299 -102.41109357 591.96333754 -99.375 595.1875 C-94.73159747 600.11919656 -90.3624441 605.17582805 -86.125 610.46484375 C-82.71231503 614.59442956 -79.06479586 618.49633485 -75.42578125 622.42578125 C-71.2128403 626.98711242 -67.16067106 631.67772292 -63.1328125 636.40234375 C-62.10955265 637.60171409 -61.08610963 638.80092817 -60.0625 640 C-59.54526367 640.60610107 -59.02802734 641.21220215 -58.49511719 641.83666992 C-54.51165118 646.48673902 -50.40375925 651.00974076 -46.2578125 655.515625 C-43.01500887 659.15181792 -39.98824904 662.94566867 -36.98046875 666.77734375 C-34.80736477 669.26492288 -32.51001454 671.20549081 -29.875 673.1875 C-31.12091809 669.90525425 -32.51281891 666.91643625 -34.31640625 663.90625 C-34.80850586 663.07988037 -35.30060547 662.25351074 -35.80761719 661.40209961 C-36.34547852 660.50628174 -36.88333984 659.61046387 -37.4375 658.6875 C-38.62166345 656.69955799 -39.80522688 654.71125849 -40.98828125 652.72265625 C-41.93501709 651.13348389 -41.93501709 651.13348389 -42.90087891 649.51220703 C-45.97433012 644.3360682 -49.01704639 639.14202224 -52.05834961 633.94696045 C-53.13546565 632.10712349 -54.21316288 630.26762811 -55.29101562 628.42822266 C-58.20639979 623.45266409 -61.12068174 618.47646085 -64.03369141 613.49951172 C-77.33809089 590.76881253 -90.66160488 568.05252821 -104.37734985 545.56677246 C-109.86912796 536.55828665 -115.2468001 527.48838206 -120.5625 518.375 C-126.79683612 507.686882 -133.15311955 497.08083367 -139.61328125 486.52734375 C-142.73164633 481.43251121 -145.80905879 476.31400581 -148.875 471.1875 C-153.69256439 463.13633771 -158.56405502 455.1191114 -163.45092773 447.10986328 C-167.81546859 439.94855093 -172.13311119 432.76009332 -176.4375 425.5625 C-181.60205248 416.93007229 -186.84272529 408.35030411 -192.15893555 399.81054688 C-195.91728746 393.76371944 -199.59813873 387.67412859 -203.25 381.5625 C-204.24595201 379.90746678 -205.24203958 378.25251512 -206.23828125 376.59765625 C-207.78991061 374.01671196 -209.30605161 371.42811173 -210.79296875 368.80859375 C-214.9945915 361.63290074 -220.1250342 356.99546043 -226.875 352.1875 C-227.4210791 351.79788086 -227.9671582 351.40826172 -228.52978516 351.00683594 C-254.22031996 332.93021499 -290.39600084 327.67925396 -315.875 349.1875 Z M227.125 354.1875 C225.87589844 355.10789062 225.87589844 355.10789062 224.6015625 356.046875 C220.01763222 359.7077613 217.18576927 363.50159327 214.359375 368.640625 C213.65799245 369.89886697 212.95507474 371.15625426 212.25073242 372.4128418 C211.89699554 373.04547943 211.54325867 373.67811707 211.17880249 374.32992554 C208.313735 379.38028009 205.22175168 384.30032738 202.1875 389.25 C196.27965545 398.92444525 190.4650241 408.64795454 184.75 418.4375 C178.58120124 429.00290681 172.37394539 439.54426419 166.125 450.0625 C165.73757629 450.71496704 165.35015259 451.36743408 164.95098877 452.03967285 C161.21944551 458.32322454 157.48002812 464.601807 153.71405029 470.86479187 C149.4033745 478.03371369 145.14521019 485.23141815 140.92471313 492.45376587 C139.08578636 495.60047608 137.24409447 498.74556703 135.40234375 501.890625 C135.03590256 502.51644974 134.66946136 503.14227448 134.29191589 503.7870636 C131.02287209 509.36738507 127.73298585 514.93525641 124.4375 520.5 C118.214111 531.01411456 112.0567849 541.56623565 105.90869141 552.12451172 C102.89924849 557.29238345 99.88752094 562.45892205 96.875 567.625 C96.28726807 568.63288574 95.69953613 569.64077148 95.09399414 570.67919922 C91.78235266 576.3553667 88.46111764 582.02568696 85.125 587.6875 C77.3223534 600.93076202 69.57400787 614.20645862 61.88769531 627.51757812 C57.43979833 635.22027372 52.95680255 642.90145369 48.4375 650.5625 C47.6172937 651.9544458 47.6172937 651.9544458 46.78051758 653.37451172 C44.39355801 657.41120186 41.99168849 661.43270112 39.48828125 665.3984375 C38.91243286 666.31230225 38.91243286 666.31230225 38.32495117 667.24462891 C37.33162189 668.80895897 36.32648299 670.36577328 35.3203125 671.921875 C34.92585938 672.66953125 34.53140625 673.4171875 34.125 674.1875 C34.455 674.8475 34.785 675.5075 35.125 676.1875 C42.00527446 668.90312905 48.73605699 661.59980804 55.0078125 653.77734375 C57.8956349 650.24482299 60.95070796 646.87908368 64.01953125 643.50390625 C72.31650095 634.37570026 80.2469885 624.90887875 88.25 615.5234375 C92.71367561 610.29433782 97.18480596 605.08564293 101.8125 600 C104.82314479 596.6866692 107.69065178 593.29808071 110.5 589.8125 C114.66346481 584.66639926 119.07562837 579.80672125 123.5703125 574.953125 C129.21972843 568.83724353 134.57228758 562.47824764 139.93310547 556.11010742 C142.81161994 552.70289626 145.74601818 549.36057794 148.75 546.0625 C151.80162695 542.70733645 154.71287787 539.27834123 157.5625 535.75 C161.47485873 530.91588137 165.58767279 526.3104301 169.79296875 521.73046875 C175.24945934 515.78042625 180.45561921 509.62282234 185.66040039 503.453125 C190.86806068 497.28992266 196.1605623 491.20129199 201.45458984 485.11230469 C203.13629701 483.17448252 204.8130028 481.23244389 206.48828125 479.2890625 C211.38718735 473.61068728 216.30000882 467.95959241 221.375 462.4375 C224.52404337 459.00539655 227.52338391 455.50838975 230.4375 451.875 C234.5118385 446.81993577 238.87601065 442.10723894 243.32299805 437.3840332 C247.38328307 433.04819278 251.16020576 428.54682039 254.875 423.91015625 C258.28886198 419.77914618 261.93767772 415.8759496 265.578125 411.9453125 C269.31773181 407.89598366 272.92363341 403.74025483 276.52294922 399.56640625 C278.1601888 397.66845323 279.79852817 395.77145736 281.4375 393.875 C282.00162598 393.22200928 282.56575195 392.56901855 283.14697266 391.89624023 C286.50243675 388.02392099 289.90659513 384.20891684 293.375 380.4375 C297.3487395 376.10542006 301.06599658 371.61995759 304.73828125 367.03125 C306.50169828 364.93015736 308.27399899 362.94486073 310.16796875 360.96875 C310.67980713 360.4317749 311.19164551 359.8947998 311.71899414 359.34155273 C312.72164037 358.29925473 313.73487045 357.26701162 314.75952148 356.24633789 C317.39237889 353.5798235 317.39237889 353.5798235 318.234375 350.05859375 C314.01732683 342.94603716 302.7411843 339.23840754 295.125 337.1875 C269.72118461 331.81184378 247.37230771 338.57906333 227.125 354.1875 Z M-34.82275391 753.28613281 C-39.39241408 756.13275843 -44.11635228 758.67334088 -48.875 761.1875 C-48.875 761.5175 -48.875 761.8475 -48.875 762.1875 C-35.37575303 762.89261352 -21.88546347 763.4037441 -8.37084961 763.69018555 C-5.54597494 763.75035196 -2.72123914 763.81532604 0.10351562 763.88085938 C10.77955981 764.12082918 21.4461733 764.24749876 32.125 764.1875 C30.80098123 761.30694993 29.32324069 759.06403306 27.2265625 756.69140625 C26.66453125 756.05009766 26.1025 755.40878906 25.5234375 754.74804688 C24.64558594 753.75901367 24.64558594 753.75901367 23.75 752.75 C22.59548172 751.43957021 21.4418168 750.12838803 20.2890625 748.81640625 C19.45314575 747.88610596 19.45314575 747.88610596 18.6003418 746.93701172 C17.125 745.1875 17.125 745.1875 15.37109375 742.29296875 C10.98405898 738.1806005 5.11162738 738.96612206 -0.61206055 738.90185547 C-13.80788137 739.44888293 -23.98734114 746.38042254 -34.82275391 753.28613281 Z M31.125 746.1875 C32.7382652 750.06483625 35.27449362 752.70476426 38.125 755.75 C40.69944258 758.50779678 43.03136463 761.04704694 45.125 764.1875 C47.7783085 764.59166676 50.20675158 764.79558446 52.875 764.875 C53.65472168 764.90843506 54.43444336 764.94187012 55.23779297 764.97631836 C65.19401303 765.35233805 75.16390612 765.27866743 85.125 765.1875 C81.78762089 762.96258059 78.43407238 761.80411922 74.66796875 760.54296875 C73.92855545 760.29130447 73.18914215 760.0396402 72.42732239 759.78034973 C70.05708875 758.97444882 67.68490496 758.17448383 65.3125 757.375 C62.98759915 756.58775635 60.66313238 755.79924842 58.33889771 755.01004028 C56.81286398 754.49188294 55.28655904 753.97452362 53.75997925 753.45797729 C47.72346493 751.40947298 41.72744963 749.26042706 35.7434082 747.0637207 C33.26908413 746.08171945 33.26908413 746.08171945 31.125 746.1875 Z " fill="#263951" transform="translate(625.875,97.8125)"/>
<path d="M0 0 C41.59102501 0 41.59102501 0 57.2428894 0.74050903 C86.74321092 2.11711365 116.26832426 2.64313417 145.79212284 3.24315548 C149.62548038 3.32121783 153.45881428 3.40041554 157.2921505 3.47951698 C159.88824377 3.53232668 162.48437403 3.58275134 165.08052063 3.63285828 C180.39564482 3.9444754 195.68514506 4.48950484 211 5 C211 69.35 211 133.7 211 200 C179.25091867 200 179.25091867 200 164.625 199.625 C163.76015991 199.60388153 162.89531982 199.58276306 162.00427246 199.56100464 C145.9978726 199.16723732 130.00120805 198.56833483 114.00280762 197.9336853 C99.5793384 197.36329658 85.15544669 196.86861061 70.7265625 196.4609375 C69.94542587 196.43885412 69.16428925 196.41677074 68.35948181 196.39401817 C60.60077887 196.17546202 52.84193579 195.96249582 45.08288765 195.75656128 C42.17747125 195.67909372 39.27210427 195.59985914 36.36674118 195.52042007 C34.40182107 195.46746169 32.43682782 195.4172382 30.47183228 195.36715698 C20.29482667 195.08947891 10.17771789 194.53566936 0 194 C0 129.98 0 65.96 0 0 Z " fill="#DADBE0" transform="translate(483,913)"/>
<path d="M0 0 C4 0 4 0 6.3125 2 C7.21697948 2.99218659 8.11204911 3.99299425 9 5 C9.50273438 5.52335937 10.00546875 6.04671875 10.5234375 6.5859375 C23.90991176 20.97796851 33.53645026 39.59492752 40 58 C40.38414062 59.02480469 40.76828125 60.04960937 41.1640625 61.10546875 C46.80956942 76.34833742 51.78794646 92.05444848 55 108 C55.18046875 108.88558594 55.3609375 109.77117187 55.546875 110.68359375 C55.8618549 112.25133463 56.17173913 113.82012423 56.47265625 115.390625 C56.77925057 116.90769913 57.09867669 118.422503 57.45068359 119.9296875 C59.01000281 126.63490823 59.95212955 133.36387913 60.85546875 140.18359375 C60.97535156 141.06144531 61.09523438 141.93929687 61.21875 142.84375 C61.3724707 144.00680664 61.3724707 144.00680664 61.52929688 145.19335938 C61.92301264 147.54095091 62.41414756 149.80939214 62.95776367 152.12451172 C64.15532937 157.43291838 64.83138461 162.76212724 65.45703125 168.1640625 C65.64698418 169.78799423 65.64698418 169.78799423 65.84077454 171.44473267 C67.39552418 185.06450655 68.62606724 198.70875762 69.6875 212.375 C69.74271694 213.07685928 69.79793388 213.77871857 69.85482407 214.50184631 C72.93986079 253.95432139 72.49395183 293.45786769 72 333 C68.57347322 331.36889942 66.05706726 329.43680052 63.1875 326.9375 C51.89261034 317.63494499 40.27912757 311.42102312 26 308 C25.25758057 307.81671143 24.51516113 307.63342285 23.75024414 307.44458008 C-2.0104923 301.63601568 -28.76458935 307.23604615 -50.91357422 321.20703125 C-55.55774668 324.35353817 -59.78146177 327.74967381 -63.6953125 331.765625 C-66 334 -66 334 -68 334 C-68.35263272 273.12167957 -68.59031793 211.90716462 -58.44824219 151.671875 C-58.03188948 149.19008633 -57.63990394 146.70600825 -57.2578125 144.21875 C-54.61126867 127.24602703 -50.88507667 110.46153359 -46.9375 93.75 C-46.58788208 92.25231079 -46.58788208 92.25231079 -46.23120117 90.72436523 C-44.53544991 83.67138104 -42.372958 76.85199905 -40 70 C-39.51348112 68.54585429 -39.02771 67.091458 -38.54296875 65.63671875 C-35.2976934 56.09914953 -31.51119181 47.00579836 -27 38 C-26.68804688 37.36819824 -26.37609375 36.73639648 -26.0546875 36.08544922 C-19.32397681 22.54536609 -10.7267011 10.7267011 0 0 Z " fill="#E23138" transform="translate(625,111)"/>
<path d="M0 0 C20.70098581 3.63323424 39.84039096 17.28295782 56 30 C57.50240234 31.17949219 57.50240234 31.17949219 59.03515625 32.3828125 C74.04502783 44.43390364 88.79117996 58.07810884 101 73 C101.57105469 73.68191406 102.14210938 74.36382812 102.73046875 75.06640625 C121.56687758 98.01963845 137.05683287 123.26930526 149.99804688 149.94287109 C151.02312541 152.04747922 152.06608851 154.14264866 153.109375 156.23828125 C179.82682387 210.53965855 195.45061364 273.36435002 194 334 C193.49791016 333.61908203 192.99582031 333.23816406 192.47851562 332.84570312 C177.27087866 321.36472555 162.73878387 313.98880698 144 310 C142.90365234 309.72349609 142.90365234 309.72349609 141.78515625 309.44140625 C119.02031233 305.83351374 98.31837538 312.15113651 78.875 323.5625 C77.97007812 324.089646 77.97007812 324.089646 77.046875 324.62744141 C73.87739172 326.56306475 71.28566662 328.60628591 68.6953125 331.27734375 C67.80585937 332.17582031 66.91640625 333.07429688 66 334 C65.34 334 64.68 334 64 334 C63.99413376 332.88834976 63.98826752 331.77669952 63.98222351 330.63136292 C63.92399471 319.94537101 63.8507582 309.25956347 63.76428509 298.57376194 C63.72031452 293.08540481 63.68091857 287.59710968 63.65356445 282.10864258 C63.52089659 256.24631463 62.8721994 230.55812787 60.72973633 204.77709961 C60.67144716 204.07191885 60.613158 203.36673809 60.55310249 202.64018822 C60.20945173 198.7193367 59.66260606 194.8779368 59 191 C58.87454414 188.60518709 58.77300461 186.20907193 58.6875 183.8125 C57.60949882 162.0509581 52.97691405 140.3771486 49 119 C48.83000488 118.06542969 48.66000977 117.13085938 48.48486328 116.16796875 C46.2711611 104.03193649 43.27016147 92.2748225 39.72607422 80.46044922 C39.04995464 78.1692814 38.40980869 75.87205511 37.78515625 73.56640625 C30.76481175 47.92881905 18.63528478 23.69927943 2 3 C1.34 2.01 0.68 1.02 0 0 Z " fill="#FCFCFC" transform="translate(642,111)"/>
<path d="M0 0 C-0.44988281 0.44085938 -0.89976562 0.88171875 -1.36328125 1.3359375 C-30.14492248 31.44418744 -41.49248172 79.27953172 -48.421875 119.04296875 C-49 122 -49 122 -50 124 C-50.31284541 125.60285221 -50.58318978 127.21409732 -50.83203125 128.828125 C-50.98881348 129.84076416 -51.1455957 130.85340332 -51.30712891 131.89672852 C-51.47390137 133.00330811 -51.64067383 134.1098877 -51.8125 135.25 C-52.07426025 136.97077759 -52.07426025 136.97077759 -52.34130859 138.72631836 C-54.40532263 152.4602345 -56.23199666 166.22525283 -58 180 C-58.11617676 180.8967041 -58.23235352 181.7934082 -58.35205078 182.71728516 C-59.49929022 191.63884446 -60.30433868 200.52954219 -60.75390625 209.51171875 C-61 213 -61 213 -61.48146057 215.65753174 C-62.11824957 219.76222833 -62.3497246 223.82165662 -62.54272461 227.96777344 C-62.58454581 228.84071926 -62.62636702 229.71366508 -62.66945553 230.61306381 C-63.12999917 240.91059534 -63.22865526 251.2094461 -63.31640625 261.515625 C-63.33704914 263.59454694 -63.35804708 265.67346539 -63.37937927 267.75238037 C-63.43384457 273.15093093 -63.4835778 278.54951443 -63.53222656 283.94812012 C-63.5830034 289.48627556 -63.63839222 295.02438484 -63.69335938 300.5625 C-63.80001282 311.3749603 -63.90165265 322.18746117 -64 333 C-67.26477145 331.42573759 -69.9377087 329.59181296 -72.8125 327.375 C-93.95100266 311.90711824 -118.3051822 305.23963156 -144.35766602 308.66943359 C-160.79904006 311.28260655 -177.99022251 318.74444673 -189.75 330.79296875 C-191 332 -191 332 -193 332 C-194.27100101 246.09010875 -165.35087242 154.86930656 -112 87 C-110.95382581 85.61602006 -109.90972068 84.23047473 -108.8671875 82.84375 C-100.8546743 72.25884036 -92.26795737 62.49695831 -83 53 C-81.99852918 51.95849556 -80.99721567 50.91683982 -79.99609375 49.875 C-74.84500878 44.59935109 -69.50524858 39.76476688 -63.734375 35.17578125 C-61.93169855 33.74136585 -60.14956347 32.28069366 -58.390625 30.79296875 C-47.08365224 21.24225655 -15.40119094 -5.13373031 0 0 Z " fill="#FCFCFC" transform="translate(612,112)"/>
<path d="M0 0 C-1.35556394 2.71112787 -2.84705759 3.03953652 -5.5625 4.375 C-29.29318367 17.0252088 -53.13862062 39.2623367 -69.69921875 60.1640625 C-71.54687099 62.44147425 -73.43790687 64.63138299 -75.38671875 66.8203125 C-78.88334156 70.79789038 -82.04472049 74.94489642 -85.125 79.25 C-85.67704102 80.01868408 -86.22908203 80.78736816 -86.79785156 81.5793457 C-93.1647002 90.52518241 -99.13855592 99.71738652 -105 109 C-105.40669922 109.639375 -105.81339844 110.27875 -106.23242188 110.9375 C-117.11411057 128.13698023 -126.13589369 146.37678781 -134 165.125 C-134.26735962 165.75946045 -134.53471924 166.3939209 -134.81018066 167.04760742 C-138.18972098 175.10639052 -141.17108712 183.2351586 -143.82421875 191.55810547 C-145.04395549 195.12867204 -146.50067683 198.53897621 -148 202 C-162.69486575 243.3735684 -167.32321982 287.44802047 -169 331 C-172.48956389 329.29444763 -175.71550307 327.32696129 -179 325.25 C-199.96738241 312.29531088 -221.82802978 307.14956914 -246.52734375 311.6953125 C-253.09292737 313.42195217 -258.88528133 316.24268408 -264.6953125 319.73046875 C-266.85413353 320.91964983 -268.62004981 321.46058219 -271 322 C-271.63230639 285.06357892 -265.81997593 250.38866988 -253.8125 215.4375 C-253.47951904 214.46723877 -253.14653809 213.49697754 -252.8034668 212.49731445 C-251.21683958 208.00379795 -249.55721802 204.04112482 -247 200 C-246.29824029 198.17981076 -245.6347145 196.34463901 -245 194.5 C-239.05936841 178.74751444 -230.27739033 164.00007833 -221 150 C-220.62133789 149.42846191 -220.24267578 148.85692383 -219.85253906 148.26806641 C-214.26166615 139.89630398 -208.22879863 131.9004251 -202 124 C-201.31679688 123.12085938 -200.63359375 122.24171875 -199.9296875 121.3359375 C-195.16348487 115.33740872 -190.04611315 109.71688415 -184.8125 104.125 C-184.13493652 103.39893555 -183.45737305 102.67287109 -182.75927734 101.92480469 C-179.02426018 97.97439389 -175.20870563 94.43449007 -171 91 C-169.31751163 89.34930668 -167.65123555 87.68195621 -166 86 C-157.18758794 77.34255765 -147.94276875 69.61153797 -137.92431641 62.38916016 C-136.12146414 61.08768472 -134.33095835 59.77100051 -132.54296875 58.44921875 C-119.17471873 48.63805185 -105.11335203 40.00211041 -90.5625 32.0625 C-89.5926416 31.53100342 -88.6227832 30.99950684 -87.62353516 30.4519043 C-81.78954351 27.31751113 -75.89208095 24.62834968 -69.75195312 22.14990234 C-67.41636364 21.17397735 -65.20228995 20.11922088 -62.96484375 18.94140625 C-58.0298005 16.40443979 -52.80911761 14.71143781 -47.5625 12.9375 C-46.57701172 12.59912109 -45.59152344 12.26074219 -44.57617188 11.91210938 C-41.72003929 10.93356693 -38.86074721 9.96495782 -36 9 C-35.18200928 8.72244873 -34.36401855 8.44489746 -33.52124023 8.15893555 C-26.7438926 5.87442827 -19.89186088 3.90989069 -13 2 C-12.175 1.76925781 -11.35 1.53851563 -10.5 1.30078125 C-6.92607143 0.34637987 -3.70401067 -0.23150067 0 0 Z " fill="#E33138" transform="translate(578,114)"/>
<path d="M0 0 C12.79065758 1.98385709 25.00394171 5.95292283 37.3125 9.84765625 C40.28239349 10.77574797 43.257084 11.65104786 46.25 12.5 C55.40512244 15.24196679 64.04305078 19.41686583 72.66088867 23.50097656 C75.49577485 24.84347261 78.33013224 26.13612466 81.23046875 27.33203125 C96.34380165 33.7546175 110.56036427 42.63445674 124 52 C125.99853908 53.29392594 127.99849314 54.58566952 130 55.875 C139.48776404 62.19590226 148.38517567 69.51492528 156.87109375 77.12109375 C158.59377308 78.64147679 160.33458744 80.12501239 162.09765625 81.59765625 C173.54652201 91.19492729 184.48509676 101.45182905 194 113 C194.44633789 113.53254395 194.89267578 114.06508789 195.35253906 114.61376953 C210.93641056 133.2259045 224.2109527 153.00343534 235.8125 174.3125 C236.62158813 175.79762085 236.62158813 175.79762085 237.44702148 177.31274414 C241.8812018 185.56220583 246.09659025 193.93189302 249.125 202.8125 C250.09672062 205.65456782 251.12505229 208.24519415 252.4921875 210.92578125 C254.02127381 214.04337432 255.03217478 217.04406821 256 220.375 C257.03768985 223.92908775 258.13480359 227.41360037 259.46484375 230.8671875 C261.076687 235.09890923 262.35894355 239.38651789 263.5625 243.75 C263.78083496 244.53930908 263.99916992 245.32861816 264.22412109 246.1418457 C265.64957806 251.41496068 266.75878093 256.64815076 267.5390625 262.05859375 C268.05148704 265.32855715 268.7774782 268.52011292 269.5 271.75 C272.96193955 288.91911139 273.34762605 306.54144734 273 324 C272.2265625 323.61134766 272.2265625 323.61134766 271.4375 323.21484375 C270.633125 322.81394531 269.82875 322.41304688 269 322 C267.9275 321.46503906 266.855 320.93007813 265.75 320.37890625 C264.50040515 319.77260177 263.25039322 319.16715627 262 318.5625 C261.40316406 318.26279297 260.80632812 317.96308594 260.19140625 317.65429688 C243.59099687 309.69921504 221.34462942 308.85073417 203.89038086 314.59008789 C193.61787237 318.39010697 183.50640803 323.36734584 175.44970703 330.84790039 C174 332 174 332 172 332 C171.9498877 331.13012451 171.89977539 330.26024902 171.84814453 329.36401367 C170.44471715 305.27502607 168.44795116 281.74650403 164 258 C163.81034668 256.96472168 163.62069336 255.92944336 163.42529297 254.86279297 C160.94596448 241.39915013 157.89563984 228.35647449 153.72753906 215.31689453 C152.34088651 210.90101107 151.08506907 206.44540353 149.82421875 201.9921875 C135.91984437 153.96785895 109.63697647 103.86821437 76.31542969 66.50976562 C74.41271341 64.32595021 72.65435822 62.03477903 70.875 59.75 C60.98786233 47.58954236 49.37836239 36.58262633 37 27 C35.14323564 25.46146296 33.28911435 23.91973119 31.4375 22.375 C23.32762164 15.75632982 14.76103865 10.14603019 5.78515625 4.796875 C3.5079678 3.32772116 1.78249975 2.01229937 0 0 Z " fill="#E33138" transform="translate(674,113)"/>
<path d="M0 0 C0.0154612 1.58778259 0.0154612 1.58778259 0.03123474 3.2076416 C0.16246007 16.63847095 0.29856325 30.0692483 0.4375 43.5 C0.44852123 44.56835587 0.45954247 45.63671173 0.47089767 46.73744202 C0.83011272 82.34510931 0.83011272 82.34510931 1.49920654 117.94793701 C1.56167355 120.7134121 1.61557381 123.47891923 1.66650391 126.24462891 C1.8063839 133.63651111 1.97917593 141.01495369 2.36451721 148.39868164 C2.51831899 151.50612372 2.62622333 154.61414751 2.72555542 157.72375488 C2.80808227 159.76569328 2.955104 161.80472534 3.10571289 163.84277344 C3.25775162 169.31909874 3.18373558 172.60853564 -0.44995117 176.87988281 C-3.43399049 179.55715798 -6.6735745 181.76927427 -10 184 C-11.41161229 185.07463506 -12.81771804 186.15659727 -14.21484375 187.25 C-15.45336462 188.16985893 -16.69423621 189.08656169 -17.9375 190 C-19.31562368 191.02273784 -20.69322134 192.04618483 -22.0703125 193.0703125 C-22.73708008 193.56563477 -23.40384766 194.06095703 -24.09082031 194.57128906 C-26.8564746 196.64093214 -29.58356557 198.75712468 -32.3125 200.875 C-38.61926578 205.74948899 -45.03314062 210.47280311 -51.46606445 215.17919922 C-54.68114072 217.53489239 -57.8571865 219.88263465 -60.9375 222.4140625 C-63 224 -63 224 -65 224 C-65 161.3 -65 98.6 -65 34 C-49.45551601 25.11743772 -49.45551601 25.11743772 -43.25 22.125 C-37.38027096 19.25062201 -31.63885473 16.19499734 -25.9375 13 C-25.19145508 12.58202148 -24.44541016 12.16404297 -23.67675781 11.73339844 C-22.93651367 11.31864258 -22.19626953 10.90388672 -21.43359375 10.4765625 C-17.14182853 8.07287233 -12.83104485 5.7071417 -8.5 3.375 C-7.5562854 2.86066406 -7.5562854 2.86066406 -6.59350586 2.3359375 C-2.23369751 0 -2.23369751 0 0 0 Z " fill="#AAADB5" transform="translate(768,883)"/>
<path d="M0 0 C8.09880404 0.31600294 16.19585557 0.44140247 24.29988098 0.5381012 C25.68000405 0.55525237 27.06012592 0.57250048 28.44024658 0.58984375 C29.47310901 0.6028129 29.47310901 0.6028129 30.52683735 0.61604404 C31.56365288 0.62906512 31.56365288 0.62906512 32.62141418 0.64234924 C33.31543681 0.65099219 34.00945944 0.65963514 34.72451305 0.66854 C52.54257072 0.89233921 70.34766444 1.20501194 88.15206909 1.95730591 C96.21422225 2.28347422 104.2708988 2.43454448 112.33894348 2.5224762 C113.54069214 2.53680191 114.7424408 2.55112762 115.98060608 2.56588745 C120.88363185 2.62320692 125.78652624 2.67853063 130.68977356 2.71290588 C134.34393573 2.74051141 137.99750979 2.78626191 141.65144348 2.8349762 C142.74836014 2.83822906 143.84527679 2.84148193 144.97543335 2.84483337 C151.50358276 2.94916706 156.81333837 3.88851901 162.86628723 6.3115387 C164.62972473 6.8993512 164.62972473 6.8993512 166.42878723 7.4990387 C167.63534973 7.9012262 167.63534973 7.9012262 168.86628723 8.3115387 C168.86628723 8.9715387 168.86628723 9.6315387 168.86628723 10.3115387 C168.20435364 10.66756165 167.54242004 11.02358459 166.86042786 11.39039612 C154.41931939 18.08295043 141.9810449 24.78079373 129.55378723 31.4990387 C128.05331848 32.30861023 128.05331848 32.30861023 126.52253723 33.13453674 C125.58796692 33.64025208 124.65339661 34.14596741 123.69050598 34.66700745 C122.87670471 35.10681946 122.06290344 35.54663147 121.22444153 35.99977112 C118.82429108 37.26991784 118.82429108 37.26991784 116.63044739 38.95631409 C112.67395626 40.89611997 109.16401645 40.7034603 104.81550598 40.6396637 C103.93390808 40.63819839 103.05231018 40.63673309 102.14399719 40.63522339 C99.28027965 40.62597475 96.41732299 40.59443237 93.55378723 40.5615387 C91.56526662 40.54895893 89.57674091 40.53716212 87.58821106 40.52613831 C77.20427196 40.45361068 66.83294847 40.28142437 56.46174622 39.73829651 C43.57162759 39.08334523 30.66087704 38.94017964 17.75764465 38.70436096 C9.05369694 38.53808273 0.3702769 38.3163325 -8.32121277 37.81544495 C-23.02689945 36.99229918 -37.76819451 36.96282445 -52.49278259 36.77931213 C-56.52286838 36.72828406 -60.55289628 36.67303086 -64.58293152 36.61817932 C-72.43314237 36.51193221 -80.2834027 36.4102147 -88.13371277 36.3115387 C-88.13371277 35.6515387 -88.13371277 34.9915387 -88.13371277 34.3115387 C-87.29900452 33.86052795 -87.29900452 33.86052795 -86.44743347 33.40040588 C-76.91603273 28.24345131 -67.39209688 23.0771258 -57.99357605 17.68067932 C-56.2410332 16.67735264 -54.48276089 15.68397364 -52.71916199 14.70021057 C-48.66724161 12.42698012 -44.79773365 10.13007191 -41.08293152 7.3349762 C-28.45206893 -1.74145712 -14.84410794 -0.58566146 0 0 Z " fill="#D9DADF" transform="translate(586.1337127685547,868.6884613037109)"/>
<path d="M0 0 C4.30840977 1.68589948 7.94114619 4.79756588 10 9 C10.97923783 15.14997963 10.67357428 20.80632602 7 26 C2.29475068 30.35235562 -1.47123698 31.34997574 -7.71484375 31.2890625 C-12.35361804 30.70227738 -16.07213721 27.51343534 -19 24 C-21.49615643 19.68257388 -21.66038319 15.8868356 -21 11 C-19.65685624 7.0926727 -17.43041616 4.40942025 -14.4375 1.5625 C-9.56912923 -0.6503958 -5.26439658 -0.65301091 0 0 Z " fill="#D8DADF" transform="translate(632,798)"/>
<path d="M0 0 C7.77232205 1.30048696 15.37726245 3.00451897 23 5 C17.58777651 9.66052578 17.58777651 9.66052578 14 10 C11.81640625 8.890625 11.81640625 8.890625 9.5625 7.25 C8.78132812 6.69441406 8.00015625 6.13882813 7.1953125 5.56640625 C6.47085938 5.04949219 5.74640625 4.53257813 5 4 C3.989375 3.401875 2.97875 2.80375 1.9375 2.1875 C1.298125 1.795625 0.65875 1.40375 0 1 C0 0.67 0 0.34 0 0 Z " fill="#D63538" transform="translate(674,113)"/>
<path d="M0 0 C0 2.97 0 5.94 0 9 C-0.66 9 -1.32 9 -2 9 C-1.835 9.94875 -1.67 10.8975 -1.5 11.875 C-0.81458208 16.5763877 -0.91416559 21.26003286 -1 26 C-1.99 26.33 -2.98 26.66 -4 27 C-4.0292483 23.79168609 -4.04688189 20.58340693 -4.0625 17.375 C-4.07087891 16.47136719 -4.07925781 15.56773437 -4.08789062 14.63671875 C-4.12174727 5.35999881 -4.12174727 5.35999881 -3 1 C-1 0 -1 0 0 0 Z " fill="#3B4D62" transform="translate(553,324)"/>
<path d="M0 0 C1.20220203 3.53094302 0.79532349 6.12898982 0.0625 9.75 C-0.13214844 10.73484375 -0.32679688 11.7196875 -0.52734375 12.734375 C-0.68332031 13.48203125 -0.83929687 14.2296875 -1 15 C-1.33 15 -1.66 15 -2 15 C-2.66 19.29 -3.32 23.58 -4 28 C-4.66 28 -5.32 28 -6 28 C-5.50236676 22.32698111 -4.65199891 16.77618818 -3.5625 11.1875 C-3.31628906 9.92292969 -3.07007813 8.65835938 -2.81640625 7.35546875 C-2.14009613 4.57580181 -1.42655975 2.45170658 0 0 Z " fill="#34475C" transform="translate(687,504)"/>
<path d="M0 0 C0.33 0 0.66 0 1 0 C1.47545004 9.45617311 0.10435896 17.83100739 -2 27 C-2.33 27 -2.66 27 -3 27 C-2.56408185 17.85719039 -1.9577539 8.97145478 0 0 Z " fill="#1A334D" transform="translate(564,269)"/>
<path d="M0 0 C0.66 0.33 1.32 0.66 2 1 C-4.66666667 7.66666667 -11.33333333 14.33333333 -18 21 C-18.66 20.67 -19.32 20.34 -20 20 C-13.4 13.4 -6.8 6.8 0 0 Z " fill="#D8DCE2" transform="translate(540,154)"/>
<path d="M0 0 C0.80859375 1.640625 0.80859375 1.640625 1 4 C-0.58570661 6.12217932 -2.09290258 7.8833556 -3.9375 9.75 C-4.41896484 10.25660156 -4.90042969 10.76320313 -5.39648438 11.28515625 C-6.58653954 12.53412504 -7.79186613 13.7685103 -9 15 C-9.66 14.34 -10.32 13.68 -11 13 C-10.06027344 11.96939453 -10.06027344 11.96939453 -9.1015625 10.91796875 C-8.28429687 10.01691406 -7.46703125 9.11585938 -6.625 8.1875 C-5.81289063 7.29417969 -5.00078125 6.40085937 -4.1640625 5.48046875 C-1.90927093 3.00367326 -1.90927093 3.00367326 0 0 Z " fill="#293D56" transform="translate(707,720)"/>
<path d="M0 0 C0.66 0.33 1.32 0.66 2 1 C1.04956626 2.33897583 0.08940853 3.67105427 -0.875 5 C-1.40867187 5.7425 -1.94234375 6.485 -2.4921875 7.25 C-2.98976563 7.8275 -3.48734375 8.405 -4 9 C-4.66 9 -5.32 9 -6 9 C-6.33 9.99 -6.66 10.98 -7 12 C-9.0625 13.1875 -9.0625 13.1875 -11 14 C-9.42219077 10.28954753 -7.09296752 7.70093616 -4.375 4.75 C-3.55773437 3.85796875 -2.74046875 2.9659375 -1.8984375 2.046875 C-1.27195312 1.37140625 -0.64546875 0.6959375 0 0 Z " fill="#384B61" transform="translate(783,633)"/>
<path d="M0 0 C0.33 0 0.66 0 1 0 C1 8.58 1 17.16 1 26 C-0.32 24.68 -1.64 23.36 -3 22 C-2.34 21.67 -1.68 21.34 -1 21 C-0.67 14.07 -0.34 7.14 0 0 Z " fill="#C6CED4" transform="translate(835,419)"/>
<path d="M0 0 C-1.62223514 3.24447028 -4.68232489 4.70777644 -8 6 C-10.375 5.375 -10.375 5.375 -12 4 C-12.33 3.34 -12.66 2.68 -13 2 C-4.57142857 -0.28571429 -4.57142857 -0.28571429 0 0 Z " fill="#CE333B" transform="translate(578,114)"/>
<path d="M0 0 C3.63 0.66 7.26 1.32 11 2 C11.33 3.32 11.66 4.64 12 6 C7.24518354 5.42365861 4.02951788 3.44931479 0 1 C0 0.67 0 0.34 0 0 Z " fill="#C2343A" transform="translate(674,113)"/>
<path d="M0 0 C2.1875 0.33984375 2.1875 0.33984375 4 1 C3.01 1.33 2.02 1.66 1 2 C-0.84399021 3.9466718 -2.49469912 6.00800719 -4.18359375 8.08984375 C-6.02321723 10.02441554 -7.55756696 10.97471492 -10 12 C-7.12570995 7.35691608 -4.17133306 3.56301365 0 0 Z " fill="#C4373D" transform="translate(625,111)"/>
<path d="M0 0 C0 3 0 3 -1.390625 4.7890625 C-2.31101562 5.69785156 -2.31101562 5.69785156 -3.25 6.625 C-3.85328125 7.23601562 -4.4565625 7.84703125 -5.078125 8.4765625 C-7.09363101 10.0742197 -8.48788161 10.58872398 -11 11 C-7.6189962 6.86378916 -4.33409466 3.18683431 0 0 Z " fill="#3C4F65" transform="translate(401,195)"/>
<path d="M0 0 C1.26070809 2.9798555 0.99119908 4.02316031 -0.1875 7.125 C-1.99400788 9.99049526 -2.86809018 10.9200311 -6 12 C-4.43358249 7.69235185 -2.31663844 3.93828536 0 0 Z " fill="#3B4F65" transform="translate(719,651)"/>
<path d="M0 0 C0.66 0 1.32 0 2 0 C0.5140084 4.59306496 -1.85014682 7.43569245 -5 11 C-5.66 10.01 -6.32 9.02 -7 8 C-5.88200014 6.66079162 -4.75538103 5.32877444 -3.625 4 C-2.68527344 2.88625 -2.68527344 2.88625 -1.7265625 1.75 C-1.15679688 1.1725 -0.58703125 0.595 0 0 Z " fill="#31455D" transform="translate(762,657)"/>
<path d="M0 0 C0.33 1.32 0.66 2.64 1 4 C0.34 4 -0.32 4 -1 4 C-1.061875 4.721875 -1.12375 5.44375 -1.1875 6.1875 C-2.24456647 9.84657625 -4.20550071 11.49211602 -7 14 C-5.53967505 8.68972746 -3.01679014 4.53669968 0 0 Z " fill="#393148" transform="translate(470,226)"/>
<path d="M0 0 C0.33 1.32 0.66 2.64 1 4 C-0.21484375 5.921875 -0.21484375 5.921875 -1.9375 7.75 C-2.50339844 8.36359375 -3.06929688 8.9771875 -3.65234375 9.609375 C-4.31943359 10.29773438 -4.31943359 10.29773438 -5 11 C-5.99 10.67 -6.98 10.34 -8 10 C-5.36 6.7 -2.72 3.4 0 0 Z " fill="#30455D" transform="translate(375,221)"/>
<path d="M0 0 C0.66 0 1.32 0 2 0 C1.91231752 1.5843317 1.80412671 3.16753567 1.6875 4.75 C1.62949219 5.63171875 1.57148437 6.5134375 1.51171875 7.421875 C0.9358819 10.32303774 -0.07596148 11.79225607 -2 14 C-1.03644647 4.58997722 -1.03644647 4.58997722 0 0 Z " fill="#3B4C63" transform="translate(662,622)"/>
<path d="M0 0 C0.8971875 0.309375 0.8971875 0.309375 1.8125 0.625 C0.1875 2.625 0.1875 2.625 -2.1875 4.625 C-5.4375 4.875 -5.4375 4.875 -8.1875 4.625 C-3.2421875 -0.55580357 -3.2421875 -0.55580357 0 0 Z " fill="#CFD2D8" transform="translate(507.1875,899.375)"/>
<path d="M0 0 C0.66 0.99 1.32 1.98 2 3 C0.02 4.98 -1.96 6.96 -4 9 C-4.99 8.67 -5.98 8.34 -7 8 C-4.69 5.36 -2.38 2.72 0 0 Z " fill="#33465D" transform="translate(693,736)"/>
<path d="M0 0 C4.2742558 1.5830577 6.26531794 4.50568404 9 8 C6 8 6 8 4.39453125 6.7578125 C3.87246094 6.21898437 3.35039062 5.68015625 2.8125 5.125 C2.28269531 4.59132813 1.75289063 4.05765625 1.20703125 3.5078125 C0 2 0 2 0 0 Z " fill="#2E4057" transform="translate(427,582)"/>
<path d="M0 0 C0.66 0.99 1.32 1.98 2 3 C0.02 4.98 -1.96 6.96 -4 9 C-4.99 8.67 -5.98 8.34 -7 8 C-4.69 5.36 -2.38 2.72 0 0 Z " fill="#354A61" transform="translate(874,528)"/>
<path d="M0 0 C1.91015625 0.70703125 1.91015625 0.70703125 4.0625 1.8125 C4.77535156 2.16957031 5.48820313 2.52664062 6.22265625 2.89453125 C8 4 8 4 9 6 C7.53932801 5.54917531 6.08151968 5.08906463 4.625 4.625 C3.81289063 4.36976562 3.00078125 4.11453125 2.1640625 3.8515625 C0 3 0 3 -2 1 C-1.34 0.67 -0.68 0.34 0 0 Z " fill="#415468" transform="translate(659,115)"/>
<path d="M0 0 C0.33 1.32 0.66 2.64 1 4 C0.01 4.33 -0.98 4.66 -2 5 C-3.20882096 7.00016466 -3.20882096 7.00016466 -4 9 C-4.99 8.67 -5.98 8.34 -7 8 C-4.69 5.36 -2.38 2.72 0 0 Z " fill="#3C4F63" transform="translate(793,621)"/>
<path d="M0 0 C0.33 0 0.66 0 1 0 C1.75698611 3.70082097 2.16166616 6.38592751 1 10 C1 10.66 1 11.32 1 12 C0.34 12 -0.32 12 -1 12 C-1.33 12.66 -1.66 13.32 -2 14 C-1.03644647 4.58997722 -1.03644647 4.58997722 0 0 Z " fill="#516175" transform="translate(679,537)"/>
<path d="M0 0 C0.33 0.66 0.66 1.32 1 2 C0.07456291 3.34173403 -0.86577405 4.67320159 -1.8125 6 C-2.33457031 6.7425 -2.85664063 7.485 -3.39453125 8.25 C-3.92433594 8.8275 -4.45414062 9.405 -5 10 C-5.99 10 -6.98 10 -8 10 C-5.36 6.7 -2.72 3.4 0 0 Z " fill="#CB3940" transform="translate(379,234)"/>
<path d="M0 0 C0.66 0.66 1.32 1.32 2 2 C-0.64 3.65 -3.28 5.3 -6 7 C-6.66 6.34 -7.32 5.68 -8 5 C-4.04 2.525 -4.04 2.525 0 0 Z " fill="#31465E" transform="translate(447,158)"/>
<path d="M0 0 C0 0.66 0 1.32 0 2 C-1.28745036 2.38922918 -2.58019597 2.76098036 -3.875 3.125 C-4.59429688 3.33382812 -5.31359375 3.54265625 -6.0546875 3.7578125 C-6.69664062 3.83773437 -7.33859375 3.91765625 -8 4 C-8.66 3.34 -9.32 2.68 -10 2 C-6.49223216 0.39644899 -3.85645121 -0.22036864 0 0 Z " fill="#354A61" transform="translate(530,117)"/>
<path d="M0 0 C4.29 0 8.58 0 13 0 C13 0.66 13 1.32 13 2 C11.02 2.33 9.04 2.66 7 3 C7 2.67 7 2.34 7 2 C4.69 1.67 2.38 1.34 0 1 C0 0.67 0 0.34 0 0 Z " fill="#425469" transform="translate(600,99)"/>
<path d="M0 0 C0.33 1.32 0.66 2.64 1 4 C-0.9375 6.25 -0.9375 6.25 -3 8 C-3.99 7.67 -4.98 7.34 -6 7 C-4.02 4.69 -2.04 2.38 0 0 Z " fill="#3A4C63" transform="translate(707,720)"/>
<path d="M0 0 C0.66 0 1.32 0 2 0 C0.94124926 3.40312738 -0.00902154 6.01353231 -2 9 C-2.66 9 -3.32 9 -4 9 C-2.94124926 5.59687262 -1.99097846 2.98646769 0 0 Z " fill="#394D63" transform="translate(684,711)"/>
<path d="M0 0 C0.66 0.99 1.32 1.98 2 3 C0.35 4.32 -1.3 5.64 -3 7 C-3.66 6.67 -4.32 6.34 -5 6 C-3.35 4.02 -1.7 2.04 0 0 Z " fill="#384D64" transform="translate(716,710)"/>
<path d="M0 0 C0.33 0.99 0.66 1.98 1 3 C-0.75 6.1875 -0.75 6.1875 -3 9 C-3.99 9 -4.98 9 -6 9 C-4.47291037 5.56404834 -2.40072955 2.88087546 0 0 Z " fill="#3C4E64" transform="translate(725,699)"/>
<path d="M0 0 C0.66 0 1.32 0 2 0 C3.32 2.64 4.64 5.28 6 8 C5.34 8.66 4.68 9.32 4 10 C0 3.375 0 3.375 0 0 Z " fill="#344559" transform="translate(528,653)"/>
<path d="M0 0 C0.33 1.32 0.66 2.64 1 4 C-1.97 6.475 -1.97 6.475 -5 9 C-5.66 8.67 -6.32 8.34 -7 8 C-4.69 5.36 -2.38 2.72 0 0 Z " fill="#32445B" transform="translate(807,605)"/>
<path d="M0 0 C-1.49097658 3.7952131 -3.75700849 5.61042731 -7 8 C-6.44414399 4.1090079 -4.34122117 0 0 0 Z " fill="#2B3F59" transform="translate(882,522)"/>
<path d="M0 0 C0.66 0 1.32 0 2 0 C2 2 2 2 0.125 4.125 C-2 6 -2 6 -4 6 C-4.33 6.99 -4.66 7.98 -5 9 C-5.33 8.34 -5.66 7.68 -6 7 C-5.04882866 5.8274869 -4.08882991 4.66212985 -3.125 3.5 C-2.59132813 2.8503125 -2.05765625 2.200625 -1.5078125 1.53125 C-0.76144531 0.77328125 -0.76144531 0.77328125 0 0 Z " fill="#34475F" transform="translate(829,580)"/>
<path d="M0 0 C0.66 0.66 1.32 1.32 2 2 C1.625 4.625 1.625 4.625 1 7 C0.01 7.33 -0.98 7.66 -2 8 C-1.47731534 5.23723823 -0.89130413 2.6739124 0 0 Z " fill="#384C63" transform="translate(579,168)"/>
<path d="M0 0 C0.33 0.66 0.66 1.32 1 2 C-0.65 3.98 -2.3 5.96 -4 8 C-4.66 7.67 -5.32 7.34 -6 7 C-4.02 4.69 -2.04 2.38 0 0 Z " fill="#33445B" transform="translate(770,648)"/>
<path d="M0 0 C0.66 0 1.32 0 2 0 C1.67 2.97 1.34 5.94 1 9 C0.34 8.67 -0.32 8.34 -1 8 C-0.67 5.36 -0.34 2.72 0 0 Z " fill="#30435A" transform="translate(302,367)"/>
</svg>
